<svg width="264" height="48" viewBox="0 0 88 16" fill="none" xmlns="http://www.w3.org/2000/svg">
<path d="M13.4219 1.35938C13.4844 1.52604 13.4635 1.67188 13.3594 1.79688C13.2656 1.91146 13.1667 1.99479 13.0625 2.04688C12.875 2.14062 12.6458 2.20312 12.375 2.23438C12.1146 2.26562 11.8802 2.32292 11.6719 2.40625C11.5573 2.45833 11.4688 2.52604 11.4062 2.60938C11.3438 2.68229 11.2552 2.73438 11.1406 2.76562C10.776 2.76562 10.4115 2.76042 10.0469 2.75C9.69271 2.73958 9.32292 2.75 8.9375 2.78125C8.86458 2.79167 8.79167 2.8125 8.71875 2.84375C8.64583 2.86458 8.57292 2.875 8.5 2.875C8.40625 2.875 8.30729 2.85938 8.20312 2.82812C8.10938 2.79688 8.01042 2.79167 7.90625 2.8125C7.85417 2.82292 7.80729 2.84896 7.76562 2.89062C7.73438 2.92188 7.69271 2.95833 7.64062 3C7.45312 3.11458 7.24479 3.22917 7.01562 3.34375C6.78646 3.44792 6.57292 3.56771 6.375 3.70312C6.19792 3.82812 6.04688 3.98958 5.92188 4.1875C5.79688 4.375 5.66667 4.57292 5.53125 4.78125C5.48958 4.85417 5.44271 4.92708 5.39062 5C5.34896 5.0625 5.31771 5.11979 5.29688 5.17188C5.27604 5.23438 5.26562 5.30729 5.26562 5.39062C5.27604 5.46354 5.27083 5.54167 5.25 5.625C5.22917 5.75 5.20312 5.88542 5.17188 6.03125C5.14062 6.17708 5.09896 6.3125 5.04688 6.4375C4.99479 6.57292 4.9375 6.70833 4.875 6.84375C4.82292 6.96875 4.78646 7.09375 4.76562 7.21875C4.74479 7.36458 4.72917 7.51042 4.71875 7.65625C4.71875 7.79167 4.69271 7.9375 4.64062 8.09375C4.60938 8.22917 4.57292 8.36458 4.53125 8.5C4.5 8.625 4.47917 8.76042 4.46875 8.90625C4.45833 9.14583 4.47396 9.38021 4.51562 9.60938C4.55729 9.82812 4.57812 10.0573 4.57812 10.2969C4.75521 10.5052 4.91667 10.7083 5.0625 10.9062C5.21875 11.0938 5.42188 11.2292 5.67188 11.3125C5.76562 11.3438 5.86979 11.3594 5.98438 11.3594C6.09896 11.3594 6.21875 11.3542 6.34375 11.3438C6.46875 11.3229 6.59375 11.3073 6.71875 11.2969C6.85417 11.276 6.98438 11.2708 7.10938 11.2812C7.20312 11.2917 7.27604 11.3125 7.32812 11.3438C7.39062 11.3646 7.44792 11.3854 7.5 11.4062C7.5625 11.4271 7.625 11.4479 7.6875 11.4688C7.76042 11.4896 7.84375 11.4948 7.9375 11.4844C8.11458 11.474 8.29167 11.4635 8.46875 11.4531C8.64583 11.4427 8.82292 11.4271 9 11.4062C9.28125 11.3854 9.53646 11.3333 9.76562 11.25C10.0052 11.1667 10.2344 11.0885 10.4531 11.0156C10.5052 10.9948 10.5573 10.9844 10.6094 10.9844C10.6615 10.9844 10.7135 10.974 10.7656 10.9531C10.849 10.9219 10.9219 10.8854 10.9844 10.8438C11.0573 10.8021 11.1406 10.7604 11.2344 10.7188C11.3281 10.6667 11.4219 10.6146 11.5156 10.5625C11.6198 10.5104 11.6979 10.4948 11.75 10.5156C11.8229 10.5365 11.8646 10.6094 11.875 10.7344C11.8958 10.849 11.901 10.9219 11.8906 10.9531C11.8698 11.026 11.8125 11.0885 11.7188 11.1406C11.625 11.1927 11.5312 11.2604 11.4375 11.3438C11.3333 11.4167 11.2448 11.4844 11.1719 11.5469C11.099 11.6094 11.026 11.6667 10.9531 11.7188C10.776 11.8438 10.5885 11.9583 10.3906 12.0625C10.2031 12.1667 10.0312 12.2708 9.875 12.375C9.72917 12.4583 9.60938 12.5469 9.51562 12.6406C9.42188 12.724 9.30208 12.7917 9.15625 12.8438C9 12.9062 8.82292 12.9479 8.625 12.9688C8.42708 12.9792 8.25521 13.0104 8.10938 13.0625C7.99479 13.1042 7.90625 13.1615 7.84375 13.2344C7.79167 13.3177 7.69271 13.3802 7.54688 13.4219C7.27604 13.5156 6.98958 13.5729 6.6875 13.5938C6.38542 13.6146 6.06771 13.6042 5.73438 13.5625C5.23438 13.4896 4.73958 13.3646 4.25 13.1875C3.77083 13.0208 3.34375 12.8333 2.96875 12.625C2.91667 12.4792 2.82292 12.3646 2.6875 12.2812C2.55208 12.1979 2.44271 12.0885 2.35938 11.9531C2.24479 11.8073 2.14583 11.6562 2.0625 11.5C1.98958 11.3333 1.86458 11.1979 1.6875 11.0938C1.72917 10.8438 1.69271 10.651 1.57812 10.5156C1.46354 10.3698 1.34896 10.2344 1.23438 10.1094C1.11979 9.68229 1.04167 9.23438 1 8.76562C0.96875 8.29688 1.00521 7.83333 1.10938 7.375C1.13021 7.29167 1.15625 7.21875 1.1875 7.15625C1.22917 7.09375 1.26042 7.02604 1.28125 6.95312C1.3125 6.85938 1.33333 6.76042 1.34375 6.65625C1.35417 6.55208 1.36979 6.45833 1.39062 6.375C1.48438 6.03125 1.60938 5.71875 1.76562 5.4375C1.92188 5.14583 2.08854 4.85938 2.26562 4.57812C2.34896 4.45312 2.43229 4.33854 2.51562 4.23438C2.60938 4.13021 2.70312 4.01562 2.79688 3.89062C2.83854 3.83854 2.875 3.78646 2.90625 3.73438C2.94792 3.67188 2.99479 3.61458 3.04688 3.5625C3.13021 3.47917 3.22396 3.41146 3.32812 3.35938C3.43229 3.29688 3.52604 3.22396 3.60938 3.14062C3.72396 3.00521 3.80729 2.84375 3.85938 2.65625C3.92188 2.45833 4.01042 2.29167 4.125 2.15625C4.14583 2.125 4.18229 2.08854 4.23438 2.04688C4.29688 2.00521 4.35938 1.96354 4.42188 1.92188C4.49479 1.88021 4.5625 1.84375 4.625 1.8125C4.69792 1.77083 4.75521 1.73958 4.79688 1.71875C5.01562 1.61458 5.23958 1.55208 5.46875 1.53125C5.70833 1.5 5.96354 1.44271 6.23438 1.35938C6.39062 1.30729 6.55208 1.25521 6.71875 1.20312C6.88542 1.15104 7.04167 1.11458 7.1875 1.09375C7.42708 1.05208 7.70312 1.02604 8.01562 1.01562C8.32812 1.00521 8.61979 1.02604 8.89062 1.07812C8.93229 1.08854 8.96875 1.10417 9 1.125C9.03125 1.13542 9.07292 1.14583 9.125 1.15625C9.23958 1.17708 9.34896 1.17708 9.45312 1.15625C9.56771 1.13542 9.67188 1.13542 9.76562 1.15625C9.81771 1.16667 9.86458 1.1875 9.90625 1.21875C9.94792 1.23958 10 1.25521 10.0625 1.26562C10.1146 1.28646 10.1719 1.29688 10.2344 1.29688C10.2969 1.28646 10.3594 1.29167 10.4219 1.3125C10.4844 1.33333 10.5521 1.35938 10.625 1.39062C10.6979 1.41146 10.7656 1.43229 10.8281 1.45312C10.974 1.47396 11.1302 1.48438 11.2969 1.48438C11.4635 1.48438 11.6198 1.47917 11.7656 1.46875C12.0469 1.44792 12.3229 1.41146 12.5938 1.35938C12.8646 1.30729 13.1406 1.30729 13.4219 1.35938ZM20.7344 6.1875C20.8385 6.39583 20.9167 6.58854 20.9688 6.76562C21.0208 6.94271 21.0625 7.18229 21.0938 7.48438C21.1146 7.69271 21.1354 7.88021 21.1562 8.04688C21.1875 8.20312 21.1927 8.40104 21.1719 8.64062C21.1615 8.80729 21.1354 8.98438 21.0938 9.17188C21.0521 9.34896 21 9.51562 20.9375 9.67188C20.8438 9.95312 20.7552 10.1979 20.6719 10.4062C20.5885 10.6146 20.4896 10.8385 20.375 11.0781C20.3021 11.2135 20.2292 11.3229 20.1562 11.4062C20.0833 11.4896 20.0052 11.5781 19.9219 11.6719C19.901 11.7031 19.8802 11.7396 19.8594 11.7812C19.849 11.8229 19.8281 11.8594 19.7969 11.8906C19.6615 12.0469 19.474 12.2083 19.2344 12.375C19.0052 12.5417 18.7917 12.6615 18.5938 12.7344C18.5208 12.7552 18.4427 12.7708 18.3594 12.7812C18.2865 12.7812 18.2083 12.7917 18.125 12.8125C18.0208 12.8542 17.9323 12.9167 17.8594 13C17.7865 13.0729 17.6927 13.125 17.5781 13.1562C17.5156 13.1771 17.4375 13.1927 17.3438 13.2031C17.2604 13.224 17.1771 13.2448 17.0938 13.2656C16.8854 13.3177 16.625 13.3698 16.3125 13.4219C16.0104 13.474 15.7292 13.4688 15.4688 13.4062C15.4271 13.3958 15.3854 13.375 15.3438 13.3438C15.3021 13.3125 15.2552 13.2865 15.2031 13.2656C15.151 13.2448 15.099 13.2292 15.0469 13.2188C14.9948 13.2083 14.9479 13.1927 14.9062 13.1719C14.7708 13.1198 14.6406 13.0469 14.5156 12.9531C14.3906 12.8594 14.2604 12.7865 14.125 12.7344C13.9792 12.651 13.8333 12.5781 13.6875 12.5156C13.5417 12.4427 13.4427 12.3177 13.3906 12.1406C13.2135 12.0885 13.0885 11.9688 13.0156 11.7812C12.9427 11.5938 12.8542 11.4271 12.75 11.2812C12.7188 11.2292 12.6719 11.1875 12.6094 11.1562C12.5573 11.1146 12.5208 11.0677 12.5 11.0156C12.4271 10.901 12.3698 10.7188 12.3281 10.4688C12.2865 10.2083 12.2604 9.98958 12.25 9.8125C12.2396 9.625 12.25 9.44792 12.2812 9.28125C12.3229 9.10417 12.3646 8.93229 12.4062 8.76562C12.4583 8.59896 12.5104 8.4375 12.5625 8.28125C12.625 8.125 12.6771 7.97396 12.7188 7.82812C12.7604 7.65104 12.8385 7.51042 12.9531 7.40625C13.0677 7.30208 13.1771 7.1875 13.2812 7.0625C13.3229 7.02083 13.3542 6.97396 13.375 6.92188C13.3958 6.86979 13.4271 6.81771 13.4688 6.76562C13.5521 6.66146 13.6458 6.57292 13.75 6.5C13.8542 6.41667 13.9531 6.33333 14.0469 6.25C14.151 6.16667 14.2604 6.08854 14.375 6.01562C14.4896 5.93229 14.5833 5.84896 14.6562 5.76562C14.7396 5.65104 14.8021 5.53646 14.8438 5.42188C14.8958 5.30729 14.974 5.20833 15.0781 5.125C15.1927 5.03125 15.3177 4.96354 15.4531 4.92188C15.599 4.88021 15.7656 4.83333 15.9531 4.78125C16.1302 4.73958 16.3021 4.68229 16.4688 4.60938C16.6458 4.52604 16.8333 4.47396 17.0312 4.45312C17.2188 4.43229 17.4219 4.42188 17.6406 4.42188C17.8594 4.41146 18.0729 4.41667 18.2812 4.4375C18.5 4.45833 18.7031 4.49479 18.8906 4.54688C19.0885 4.59896 19.2604 4.67188 19.4062 4.76562C19.4792 4.80729 19.5521 4.86979 19.625 4.95312C19.7083 5.03646 19.7865 5.11458 19.8594 5.1875C20.026 5.35417 20.1667 5.52604 20.2812 5.70312C20.4062 5.86979 20.5573 6.03125 20.7344 6.1875ZM17.3281 5.48438C17.2865 5.48438 17.224 5.5 17.1406 5.53125C17.0677 5.5625 16.9896 5.59896 16.9062 5.64062C16.8333 5.67188 16.7656 5.70833 16.7031 5.75C16.6406 5.79167 16.5938 5.82292 16.5625 5.84375C16.4375 5.95833 16.3229 6.10417 16.2188 6.28125C16.125 6.44792 16.0156 6.59896 15.8906 6.73438C15.8385 6.78646 15.7812 6.82812 15.7188 6.85938C15.6667 6.88021 15.625 6.91146 15.5938 6.95312C15.4167 7.15104 15.2865 7.38021 15.2031 7.64062C15.1302 7.90104 15.0521 8.15104 14.9688 8.39062C14.875 8.64062 14.7865 8.92188 14.7031 9.23438C14.6198 9.54688 14.5938 9.84375 14.625 10.125C14.6354 10.1875 14.6562 10.2708 14.6875 10.375C14.7292 10.4688 14.7656 10.5573 14.7969 10.6406C14.8385 10.7344 14.875 10.8281 14.9062 10.9219C14.9479 11.0052 14.9896 11.0833 15.0312 11.1562C15.0938 11.2812 15.1719 11.4167 15.2656 11.5625C15.3698 11.6979 15.4844 11.8177 15.6094 11.9219C15.7448 12.0156 15.8906 12.0885 16.0469 12.1406C16.2135 12.1823 16.3906 12.1771 16.5781 12.125C16.6927 12.0833 16.8333 12.0208 17 11.9375C17.1667 11.8438 17.3177 11.7552 17.4531 11.6719C17.651 11.5469 17.7917 11.4219 17.875 11.2969C17.9583 11.1615 18.0417 10.9896 18.125 10.7812C18.1458 10.7292 18.1719 10.6823 18.2031 10.6406C18.2448 10.5885 18.2812 10.5365 18.3125 10.4844C18.375 10.3698 18.4271 10.2448 18.4688 10.1094C18.5104 9.97396 18.5625 9.84375 18.625 9.71875C18.75 9.4375 18.8281 9.16667 18.8594 8.90625C18.8906 8.64583 18.9167 8.33333 18.9375 7.96875C18.9479 7.77083 18.9323 7.625 18.8906 7.53125C18.8594 7.4375 18.8333 7.30729 18.8125 7.14062C18.8021 7.02604 18.7969 6.92188 18.7969 6.82812C18.7969 6.72396 18.776 6.63542 18.7344 6.5625C18.6823 6.46875 18.5833 6.40625 18.4375 6.375C18.3021 6.34375 18.1927 6.28646 18.1094 6.20312C18.026 6.06771 17.9375 5.9375 17.8438 5.8125C17.75 5.6875 17.6354 5.58333 17.5 5.5C17.4479 5.51042 17.4115 5.51042 17.3906 5.5C17.3698 5.48958 17.349 5.48438 17.3281 5.48438ZM24.9375 12.8594C24.8646 12.849 24.7552 12.875 24.6094 12.9375C24.474 13 24.349 13.0521 24.2344 13.0938C24.1198 13.125 23.9948 13.1615 23.8594 13.2031C23.724 13.2448 23.5938 13.2604 23.4688 13.25C23.3854 13.2396 23.3073 13.2135 23.2344 13.1719C23.1615 13.1406 23.0938 13.1302 23.0312 13.1406C22.9792 13.1406 22.9323 13.1615 22.8906 13.2031C22.849 13.2448 22.7969 13.276 22.7344 13.2969C22.6198 13.3385 22.4844 13.3698 22.3281 13.3906C22.1719 13.4219 22.0208 13.4323 21.875 13.4219C21.7292 13.4115 21.6094 13.3698 21.5156 13.2969C21.4323 13.2344 21.4062 13.1302 21.4375 12.9844C21.4583 12.8906 21.4948 12.7969 21.5469 12.7031C21.6094 12.599 21.6667 12.4844 21.7188 12.3594C21.8021 12.1406 21.8646 11.9115 21.9062 11.6719C21.9479 11.4219 22.0052 11.224 22.0781 11.0781C22.1198 10.9948 22.1823 10.9167 22.2656 10.8438C22.349 10.7708 22.3958 10.6927 22.4062 10.6094C22.4167 10.5469 22.4062 10.4948 22.375 10.4531C22.3438 10.4115 22.3281 10.3542 22.3281 10.2812C22.3281 10.2292 22.3385 10.1771 22.3594 10.125C22.3906 10.0625 22.4115 9.98958 22.4219 9.90625C22.4323 9.82292 22.4323 9.75 22.4219 9.6875C22.4115 9.61458 22.4167 9.55208 22.4375 9.5C22.4583 9.4375 22.4896 9.38021 22.5312 9.32812C22.5729 9.26562 22.6146 9.20833 22.6562 9.15625C22.7083 9.09375 22.75 9.02604 22.7812 8.95312C22.8125 8.88021 22.8281 8.79688 22.8281 8.70312C22.8281 8.65104 22.8438 8.56771 22.875 8.45312C22.9062 8.32812 22.9167 8.23438 22.9062 8.17188C22.875 7.95312 22.875 7.77083 22.9062 7.625C22.9479 7.47917 22.9948 7.34896 23.0469 7.23438C23.1094 7.10938 23.1719 6.98438 23.2344 6.85938C23.3073 6.73438 23.3594 6.58333 23.3906 6.40625C23.4323 6.1875 23.4635 5.95833 23.4844 5.71875C23.5052 5.47917 23.5417 5.26562 23.5938 5.07812C23.6562 4.88021 23.7448 4.72396 23.8594 4.60938C23.9844 4.49479 24.1719 4.45312 24.4219 4.48438C24.526 4.60938 24.5938 4.72917 24.625 4.84375C24.6667 4.95833 24.724 5.08854 24.7969 5.23438C24.8281 5.31771 24.9115 5.39062 25.0469 5.45312C25.1823 5.51562 25.276 5.58333 25.3281 5.65625C25.3802 5.71875 25.4375 5.78646 25.5 5.85938C25.5729 5.92188 25.6198 5.98958 25.6406 6.0625C25.6719 6.19792 25.6771 6.35417 25.6562 6.53125C25.6458 6.70833 25.6354 6.86979 25.625 7.01562C25.6146 7.09896 25.6042 7.1875 25.5938 7.28125C25.5833 7.36458 25.5677 7.4375 25.5469 7.5C25.526 7.57292 25.5 7.63542 25.4688 7.6875C25.4479 7.73958 25.4323 7.79167 25.4219 7.84375C25.401 7.94792 25.3854 8.04167 25.375 8.125C25.375 8.19792 25.3646 8.27083 25.3438 8.34375C25.2917 8.5 25.2135 8.63542 25.1094 8.75C25.0156 8.86458 24.9427 9 24.8906 9.15625C24.8594 9.22917 24.8333 9.3125 24.8125 9.40625C24.8021 9.5 24.7865 9.58854 24.7656 9.67188C24.7031 9.90104 24.6354 10.1615 24.5625 10.4531C24.4896 10.7448 24.4635 11.026 24.4844 11.2969C24.5677 11.276 24.6406 11.2604 24.7031 11.25C24.7656 11.2396 24.8229 11.2344 24.875 11.2344C24.9271 11.224 24.9844 11.224 25.0469 11.2344C25.1198 11.2448 25.2083 11.2604 25.3125 11.2812C25.4688 11.3229 25.6406 11.375 25.8281 11.4375C26.0156 11.5 26.2083 11.5417 26.4062 11.5625C26.5521 11.5729 26.6979 11.5729 26.8438 11.5625C27 11.5521 27.151 11.5573 27.2969 11.5781C27.4427 11.599 27.5781 11.625 27.7031 11.6562C27.8385 11.6771 27.9635 11.6771 28.0781 11.6562C28.1302 11.6354 28.1667 11.6198 28.1875 11.6094C28.2188 11.5885 28.2552 11.5729 28.2969 11.5625C28.4635 11.5312 28.6562 11.5365 28.875 11.5781C29.0938 11.6094 29.2969 11.6354 29.4844 11.6562C29.5156 11.6562 29.5625 11.6562 29.625 11.6562C29.6875 11.6458 29.75 11.6458 29.8125 11.6562C29.875 11.6562 29.9271 11.6719 29.9688 11.7031C30.0104 11.7344 30.0312 11.7812 30.0312 11.8438C30.0208 11.9375 29.9479 12.0104 29.8125 12.0625C29.6875 12.1146 29.5833 12.151 29.5 12.1719C29.375 12.2031 29.2552 12.2188 29.1406 12.2188C29.0365 12.2188 28.9219 12.2344 28.7969 12.2656C28.6823 12.2969 28.5781 12.3385 28.4844 12.3906C28.401 12.4323 28.3125 12.4635 28.2188 12.4844C28.1875 12.5052 28.1562 12.5156 28.125 12.5156C28.0938 12.5052 28.0573 12.5052 28.0156 12.5156C27.9531 12.5365 27.8802 12.5729 27.7969 12.625C27.7135 12.6667 27.6458 12.6927 27.5938 12.7031C27.4062 12.7448 27.2031 12.7344 26.9844 12.6719C26.776 12.6094 26.5625 12.5885 26.3438 12.6094C26.2604 12.6198 26.1771 12.6406 26.0938 12.6719C26.0104 12.6927 25.9271 12.7135 25.8438 12.7344C25.7604 12.7552 25.6771 12.7708 25.5938 12.7812C25.5104 12.7917 25.4375 12.8073 25.375 12.8281L24.9375 12.8594ZM32.5781 12.8594C32.5052 12.849 32.3958 12.875 32.25 12.9375C32.1146 13 31.9896 13.0521 31.875 13.0938C31.7604 13.125 31.6354 13.1615 31.5 13.2031C31.3646 13.2448 31.2344 13.2604 31.1094 13.25C31.026 13.2396 30.9479 13.2135 30.875 13.1719C30.8021 13.1406 30.7344 13.1302 30.6719 13.1406C30.6198 13.1406 30.5729 13.1615 30.5312 13.2031C30.4896 13.2448 30.4375 13.276 30.375 13.2969C30.2604 13.3385 30.125 13.3698 29.9688 13.3906C29.8125 13.4219 29.6615 13.4323 29.5156 13.4219C29.3698 13.4115 29.25 13.3698 29.1562 13.2969C29.0729 13.2344 29.0469 13.1302 29.0781 12.9844C29.099 12.8906 29.1354 12.7969 29.1875 12.7031C29.25 12.599 29.3073 12.4844 29.3594 12.3594C29.4427 12.1406 29.5052 11.9115 29.5469 11.6719C29.5885 11.4219 29.6458 11.224 29.7188 11.0781C29.7604 10.9948 29.8229 10.9167 29.9062 10.8438C29.9896 10.7708 30.0365 10.6927 30.0469 10.6094C30.0573 10.5469 30.0469 10.4948 30.0156 10.4531C29.9844 10.4115 29.9688 10.3542 29.9688 10.2812C29.9688 10.2292 29.9792 10.1771 30 10.125C30.0312 10.0625 30.0521 9.98958 30.0625 9.90625C30.0729 9.82292 30.0729 9.75 30.0625 9.6875C30.0521 9.61458 30.0573 9.55208 30.0781 9.5C30.099 9.4375 30.1302 9.38021 30.1719 9.32812C30.2135 9.26562 30.2552 9.20833 30.2969 9.15625C30.349 9.09375 30.3906 9.02604 30.4219 8.95312C30.4531 8.88021 30.4688 8.79688 30.4688 8.70312C30.4688 8.65104 30.4844 8.56771 30.5156 8.45312C30.5469 8.32812 30.5573 8.23438 30.5469 8.17188C30.5156 7.95312 30.5156 7.77083 30.5469 7.625C30.5885 7.47917 30.6354 7.34896 30.6875 7.23438C30.75 7.10938 30.8125 6.98438 30.875 6.85938C30.9479 6.73438 31 6.58333 31.0312 6.40625C31.0729 6.1875 31.1042 5.95833 31.125 5.71875C31.1458 5.47917 31.1823 5.26562 31.2344 5.07812C31.2969 4.88021 31.3854 4.72396 31.5 4.60938C31.625 4.49479 31.8125 4.45312 32.0625 4.48438C32.1667 4.60938 32.2344 4.72917 32.2656 4.84375C32.3073 4.95833 32.3646 5.08854 32.4375 5.23438C32.4688 5.31771 32.5521 5.39062 32.6875 5.45312C32.8229 5.51562 32.9167 5.58333 32.9688 5.65625C33.0208 5.71875 33.0781 5.78646 33.1406 5.85938C33.2135 5.92188 33.2604 5.98958 33.2812 6.0625C33.3125 6.19792 33.3177 6.35417 33.2969 6.53125C33.2865 6.70833 33.276 6.86979 33.2656 7.01562C33.2552 7.09896 33.2448 7.1875 33.2344 7.28125C33.224 7.36458 33.2083 7.4375 33.1875 7.5C33.1667 7.57292 33.1406 7.63542 33.1094 7.6875C33.0885 7.73958 33.0729 7.79167 33.0625 7.84375C33.0417 7.94792 33.026 8.04167 33.0156 8.125C33.0156 8.19792 33.0052 8.27083 32.9844 8.34375C32.9323 8.5 32.8542 8.63542 32.75 8.75C32.6562 8.86458 32.5833 9 32.5312 9.15625C32.5 9.22917 32.474 9.3125 32.4531 9.40625C32.4427 9.5 32.4271 9.58854 32.4062 9.67188C32.3438 9.90104 32.276 10.1615 32.2031 10.4531C32.1302 10.7448 32.1042 11.026 32.125 11.2969C32.2083 11.276 32.2812 11.2604 32.3438 11.25C32.4062 11.2396 32.4635 11.2344 32.5156 11.2344C32.5677 11.224 32.625 11.224 32.6875 11.2344C32.7604 11.2448 32.849 11.2604 32.9531 11.2812C33.1094 11.3229 33.2812 11.375 33.4688 11.4375C33.6562 11.5 33.849 11.5417 34.0469 11.5625C34.1927 11.5729 34.3385 11.5729 34.4844 11.5625C34.6406 11.5521 34.7917 11.5573 34.9375 11.5781C35.0833 11.599 35.2188 11.625 35.3438 11.6562C35.4792 11.6771 35.6042 11.6771 35.7188 11.6562C35.7708 11.6354 35.8073 11.6198 35.8281 11.6094C35.8594 11.5885 35.8958 11.5729 35.9375 11.5625C36.1042 11.5312 36.2969 11.5365 36.5156 11.5781C36.7344 11.6094 36.9375 11.6354 37.125 11.6562C37.1562 11.6562 37.2031 11.6562 37.2656 11.6562C37.3281 11.6458 37.3906 11.6458 37.4531 11.6562C37.5156 11.6562 37.5677 11.6719 37.6094 11.7031C37.651 11.7344 37.6719 11.7812 37.6719 11.8438C37.6615 11.9375 37.5885 12.0104 37.4531 12.0625C37.3281 12.1146 37.224 12.151 37.1406 12.1719C37.0156 12.2031 36.8958 12.2188 36.7812 12.2188C36.6771 12.2188 36.5625 12.2344 36.4375 12.2656C36.3229 12.2969 36.2188 12.3385 36.125 12.3906C36.0417 12.4323 35.9531 12.4635 35.8594 12.4844C35.8281 12.5052 35.7969 12.5156 35.7656 12.5156C35.7344 12.5052 35.6979 12.5052 35.6562 12.5156C35.5938 12.5365 35.5208 12.5729 35.4375 12.625C35.3542 12.6667 35.2865 12.6927 35.2344 12.7031C35.0469 12.7448 34.8438 12.7344 34.625 12.6719C34.4167 12.6094 34.2031 12.5885 33.9844 12.6094C33.901 12.6198 33.8177 12.6406 33.7344 12.6719C33.651 12.6927 33.5677 12.7135 33.4844 12.7344C33.401 12.7552 33.3177 12.7708 33.2344 12.7812C33.151 12.7917 33.0781 12.8073 33.0156 12.8281L32.5781 12.8594ZM40.0469 5.875C40.2448 5.73958 40.4167 5.58333 40.5625 5.40625C40.7083 5.22917 40.849 5.05208 40.9844 4.875C41.0677 4.88542 41.1406 4.86979 41.2031 4.82812C41.2656 4.78646 41.3333 4.75521 41.4062 4.73438C41.5521 4.69271 41.6979 4.69792 41.8438 4.75C42 4.79167 42.151 4.80729 42.2969 4.79688C42.474 4.77604 42.6406 4.72917 42.7969 4.65625C42.9635 4.58333 43.1562 4.54688 43.375 4.54688C43.4479 4.54688 43.5156 4.57292 43.5781 4.625C43.6406 4.66667 43.7031 4.69271 43.7656 4.70312C43.849 4.72396 43.9219 4.71354 43.9844 4.67188C44.0573 4.63021 44.1354 4.60938 44.2188 4.60938C44.3646 4.60938 44.474 4.65625 44.5469 4.75C44.6302 4.84375 44.724 4.9375 44.8281 5.03125C44.8802 5.27083 44.8854 5.50521 44.8438 5.73438C44.8021 5.96354 44.7917 6.19792 44.8125 6.4375C44.8333 6.59375 44.8542 6.74479 44.875 6.89062C44.9062 7.03646 44.9219 7.1875 44.9219 7.34375C44.9323 7.47917 44.9219 7.625 44.8906 7.78125C44.8698 7.92708 44.8646 8.07292 44.875 8.21875C44.8854 8.27083 44.901 8.32292 44.9219 8.375C44.9427 8.42708 44.9479 8.47917 44.9375 8.53125C44.9167 8.64583 44.8698 8.73438 44.7969 8.79688C44.724 8.85938 44.6823 8.94271 44.6719 9.04688C44.651 9.20312 44.6823 9.34896 44.7656 9.48438C44.8594 9.61979 44.9167 9.76042 44.9375 9.90625C44.9479 9.96875 44.9427 10.0365 44.9219 10.1094C44.901 10.1823 44.8906 10.25 44.8906 10.3125C44.8698 10.5417 44.8698 10.7969 44.8906 11.0781C44.9219 11.3594 44.9427 11.6198 44.9531 11.8594C44.9531 11.9427 44.9583 12.026 44.9688 12.1094C44.9896 12.1927 44.9896 12.2604 44.9688 12.3125C44.9583 12.3646 44.9323 12.4062 44.8906 12.4375C44.8594 12.4688 44.8333 12.5052 44.8125 12.5469C44.8021 12.599 44.8021 12.6719 44.8125 12.7656C44.8333 12.8594 44.8438 12.9479 44.8438 13.0312C44.8438 13.1042 44.8385 13.1719 44.8281 13.2344C44.8177 13.3073 44.8125 13.3698 44.8125 13.4219C44.8229 13.4531 44.8333 13.4844 44.8438 13.5156C44.8646 13.5573 44.8698 13.5938 44.8594 13.625C44.8385 13.7188 44.7656 13.8177 44.6406 13.9219C44.526 14.0365 44.4062 14.0885 44.2812 14.0781C44.2188 14.0677 44.125 14.0156 44 13.9219C43.8854 13.8385 43.8021 13.7708 43.75 13.7188C43.6562 13.6042 43.599 13.4583 43.5781 13.2812C43.5573 13.1042 43.5104 12.9427 43.4375 12.7969C43.4062 12.7448 43.3594 12.6979 43.2969 12.6562C43.2448 12.6042 43.1979 12.5469 43.1562 12.4844C43.0938 12.3698 43.0521 12.2552 43.0312 12.1406C43.0104 12.0156 42.9948 11.8958 42.9844 11.7812C42.9844 11.6562 42.9792 11.5365 42.9688 11.4219C42.9583 11.2969 42.9323 11.1719 42.8906 11.0469C42.8698 11.0052 42.8385 10.9688 42.7969 10.9375C42.7552 10.9062 42.7188 10.8646 42.6875 10.8125C42.625 10.7083 42.5833 10.6198 42.5625 10.5469C42.5417 10.474 42.474 10.4167 42.3594 10.375C41.9948 10.375 41.625 10.3646 41.25 10.3438C40.8854 10.3229 40.526 10.3333 40.1719 10.375C40.0885 10.3854 40.0156 10.4062 39.9531 10.4375C39.8906 10.4583 39.8177 10.474 39.7344 10.4844C39.6927 10.4844 39.651 10.4792 39.6094 10.4688C39.5677 10.4583 39.5312 10.4531 39.5 10.4531C39.3542 10.474 39.2135 10.5417 39.0781 10.6562C38.9427 10.7604 38.8385 10.8646 38.7656 10.9688C38.724 11.0312 38.6979 11.1094 38.6875 11.2031C38.6875 11.2865 38.6719 11.3698 38.6406 11.4531C38.6094 11.5365 38.5573 11.6146 38.4844 11.6875C38.4115 11.75 38.3854 11.8333 38.4062 11.9375C38.2917 12.0208 38.1927 12.125 38.1094 12.25C38.0365 12.375 37.9635 12.5052 37.8906 12.6406C37.8177 12.7656 37.7344 12.8854 37.6406 13C37.5573 13.1146 37.4531 13.1979 37.3281 13.25C37.276 13.2708 37.224 13.2969 37.1719 13.3281C37.1302 13.3594 37.0833 13.375 37.0312 13.375C36.9792 13.3646 36.9479 13.349 36.9375 13.3281C36.9375 13.3073 36.9062 13.276 36.8438 13.2344C36.7812 13.1927 36.7083 13.1458 36.625 13.0938C36.5312 13.0417 36.4427 12.9844 36.3594 12.9219C36.276 12.8594 36.2031 12.7969 36.1406 12.7344C36.0677 12.6615 36.0156 12.5938 35.9844 12.5312C35.901 12.3542 35.8854 12.2292 35.9375 12.1562C35.9896 12.0729 36.0573 11.974 36.1406 11.8594C36.2552 11.6927 36.3854 11.5052 36.5312 11.2969C36.6771 11.0885 36.8073 10.8906 36.9219 10.7031C36.9844 10.599 37.0365 10.5 37.0781 10.4062C37.1302 10.3125 37.1927 10.224 37.2656 10.1406C37.349 10.026 37.4531 9.93229 37.5781 9.85938C37.7135 9.78646 37.8073 9.69271 37.8594 9.57812C37.8802 9.52604 37.8906 9.47396 37.8906 9.42188C37.8906 9.35938 37.901 9.29688 37.9219 9.23438C38.0052 9.02604 38.1354 8.83854 38.3125 8.67188C38.4896 8.50521 38.625 8.31771 38.7188 8.10938C38.7396 8.05729 38.75 8.01042 38.75 7.96875C38.7604 7.91667 38.776 7.86458 38.7969 7.8125C38.9635 7.42708 39.1667 7.08333 39.4062 6.78125C39.6562 6.47917 39.8698 6.17708 40.0469 5.875ZM42.2344 5.82812C42.1094 5.92188 42 6.03125 41.9062 6.15625C41.8229 6.27083 41.7083 6.35938 41.5625 6.42188C41.5208 6.51562 41.4688 6.60417 41.4062 6.6875C41.3542 6.77083 41.2812 6.83854 41.1875 6.89062C41.1562 7.05729 41.0938 7.20312 41 7.32812C40.9062 7.44271 40.8177 7.55729 40.7344 7.67188C40.6927 7.71354 40.6562 7.76042 40.625 7.8125C40.5938 7.85417 40.5573 7.90104 40.5156 7.95312C40.4635 8.00521 40.4115 8.04688 40.3594 8.07812C40.3073 8.09896 40.2604 8.13021 40.2188 8.17188C40.1562 8.25521 40.0885 8.36979 40.0156 8.51562C39.9427 8.66146 39.875 8.78125 39.8125 8.875C39.7604 8.92708 39.7083 8.97917 39.6562 9.03125C39.6042 9.08333 39.5885 9.15104 39.6094 9.23438C39.6406 9.31771 39.7031 9.375 39.7969 9.40625C39.8906 9.42708 39.9948 9.44271 40.1094 9.45312C40.2344 9.45312 40.3542 9.44792 40.4688 9.4375C40.5833 9.42708 40.6771 9.42188 40.75 9.42188C40.8958 9.42188 41.0417 9.42708 41.1875 9.4375C41.3438 9.4375 41.4896 9.43229 41.625 9.42188C41.7708 9.41146 41.8958 9.38542 42 9.34375C42.1146 9.30208 42.2031 9.23958 42.2656 9.15625C42.3698 8.82292 42.3958 8.48958 42.3438 8.15625C42.2917 7.8125 42.2448 7.47396 42.2031 7.14062C42.1823 7.04688 42.1667 6.94271 42.1562 6.82812C42.1458 6.71354 42.1458 6.60938 42.1562 6.51562C42.1667 6.41146 42.1979 6.3125 42.25 6.21875C42.3125 6.11458 42.3229 5.99479 42.2812 5.85938L42.2344 5.82812ZM53.25 9.0625C53.25 9.10417 53.2656 9.13542 53.2969 9.15625C53.3385 9.16667 53.3802 9.18229 53.4219 9.20312C53.4635 9.21354 53.5 9.23438 53.5312 9.26562C53.5729 9.28646 53.5885 9.31771 53.5781 9.35938C53.724 9.50521 53.8542 9.61458 53.9688 9.6875C54.0938 9.75 54.2292 9.86458 54.375 10.0312C54.3958 10.0521 54.4167 10.1146 54.4375 10.2188C54.4583 10.3125 54.4792 10.3698 54.5 10.3906C54.6458 10.599 54.6875 10.8177 54.625 11.0469C54.5625 11.2656 54.4479 11.4792 54.2812 11.6875C54.125 11.8854 53.9375 12.0677 53.7188 12.2344C53.5 12.3906 53.3073 12.5052 53.1406 12.5781C52.9844 12.6615 52.8281 12.7188 52.6719 12.75C52.526 12.7812 52.349 12.8177 52.1406 12.8594C52.0885 12.8698 52.0417 12.8854 52 12.9062C51.9583 12.9271 51.9115 12.9479 51.8594 12.9688C51.526 13.0417 51.1979 13.0625 50.875 13.0312C50.5521 13.0104 50.2135 13.0104 49.8594 13.0312C49.7448 13.0417 49.6354 13.0573 49.5312 13.0781C49.4375 13.099 49.3281 13.0885 49.2031 13.0469C49.151 13.0365 49.099 13.0156 49.0469 12.9844C48.9948 12.9427 48.9427 12.9167 48.8906 12.9062C48.8177 12.8854 48.7396 12.8906 48.6562 12.9219C48.5729 12.9427 48.4896 12.9583 48.4062 12.9688C48.2917 12.9896 48.1719 12.9948 48.0469 12.9844C47.9219 12.9635 47.7917 12.9635 47.6562 12.9844C47.5833 12.9948 47.5156 13.0104 47.4531 13.0312C47.3906 13.0625 47.3229 13.0833 47.25 13.0938C47.0417 13.125 46.8281 13.1406 46.6094 13.1406C46.401 13.151 46.2188 13.151 46.0625 13.1406C46 13.1406 45.9427 13.1302 45.8906 13.1094C45.8385 13.0885 45.7865 13.0781 45.7344 13.0781C45.6927 13.0781 45.625 13.0833 45.5312 13.0938C45.4375 13.1146 45.3438 13.125 45.25 13.125C45.1562 13.1354 45.0781 13.1302 45.0156 13.1094C44.9427 13.0885 44.9062 13.0417 44.9062 12.9688C44.9062 12.9271 44.9375 12.8854 45 12.8438C45.0521 12.8021 45.1146 12.7656 45.1875 12.7344C45.2604 12.6927 45.3333 12.6562 45.4062 12.625C45.4792 12.5833 45.5365 12.5469 45.5781 12.5156C45.6406 12.4635 45.724 12.3906 45.8281 12.2969C45.9219 12.2031 46.0156 12.1042 46.1094 12C46.2031 11.8854 46.2865 11.776 46.3594 11.6719C46.4323 11.5573 46.4792 11.4583 46.5 11.375C46.5104 11.3229 46.5104 11.276 46.5 11.2344C46.4896 11.1927 46.4896 11.151 46.5 11.1094C46.5208 10.9844 46.5677 10.8333 46.6406 10.6562C46.724 10.4688 46.7917 10.3125 46.8438 10.1875C46.8646 10.1146 46.8802 10.0365 46.8906 9.95312C46.901 9.86979 46.9167 9.79688 46.9375 9.73438C46.9896 9.61979 47.0469 9.52083 47.1094 9.4375C47.1719 9.34375 47.2292 9.25 47.2812 9.15625C47.3438 9.0625 47.3854 8.96354 47.4062 8.85938C47.4375 8.74479 47.4479 8.60417 47.4375 8.4375C47.4271 8.38542 47.4115 8.33333 47.3906 8.28125C47.3698 8.22917 47.3542 8.17188 47.3438 8.10938C47.3438 7.92188 47.3958 7.75 47.5 7.59375C47.6146 7.4375 47.6875 7.26562 47.7188 7.07812C47.7188 7.02604 47.7083 6.98438 47.6875 6.95312C47.6667 6.91146 47.6562 6.86458 47.6562 6.8125C47.6562 6.6875 47.6719 6.56771 47.7031 6.45312C47.7448 6.32812 47.776 6.20833 47.7969 6.09375C47.8177 5.92708 47.7917 5.76042 47.7188 5.59375C47.6562 5.42708 47.5833 5.28125 47.5 5.15625C47.4688 5.11458 47.4271 5.07292 47.375 5.03125C47.3333 4.98958 47.2917 4.94792 47.25 4.90625C47.2083 4.85417 47.1719 4.79688 47.1406 4.73438C47.1198 4.67188 47.1198 4.58854 47.1406 4.48438C47.3281 4.45312 47.4896 4.45833 47.625 4.5C47.7708 4.53125 47.8958 4.58333 48 4.65625C48.2292 4.625 48.4635 4.63021 48.7031 4.67188C48.9531 4.71354 49.1667 4.77604 49.3438 4.85938C49.4896 4.83854 49.6302 4.83333 49.7656 4.84375C49.9115 4.85417 50.0573 4.86979 50.2031 4.89062C50.2552 4.89062 50.3021 4.90104 50.3438 4.92188C50.3958 4.94271 50.4479 4.95312 50.5 4.95312C50.6146 4.95312 50.7292 4.93229 50.8438 4.89062C50.9583 4.83854 51.0729 4.80208 51.1875 4.78125C51.2708 4.76042 51.349 4.76562 51.4219 4.79688C51.4948 4.81771 51.5677 4.82812 51.6406 4.82812C51.7344 4.81771 51.8125 4.79688 51.875 4.76562C51.9375 4.73438 51.9948 4.71875 52.0469 4.71875C52.276 4.67708 52.5052 4.67188 52.7344 4.70312C52.974 4.72396 53.1823 4.77083 53.3594 4.84375C53.4115 4.86458 53.4948 4.86979 53.6094 4.85938C53.724 4.83854 53.8125 4.84896 53.875 4.89062C53.9896 4.96354 54.1198 5.02604 54.2656 5.07812C54.4219 5.13021 54.5469 5.19792 54.6406 5.28125C54.7135 5.34375 54.776 5.41667 54.8281 5.5C54.8906 5.57292 54.974 5.63021 55.0781 5.67188C55.1406 5.69271 55.1771 5.73438 55.1875 5.79688C55.2083 5.85938 55.25 5.91146 55.3125 5.95312C55.4479 6.03646 55.5521 6.18229 55.625 6.39062C55.7083 6.59896 55.7448 6.79167 55.7344 6.96875C55.7135 7.08333 55.6667 7.1875 55.5938 7.28125C55.5312 7.36458 55.4688 7.45312 55.4062 7.54688C55.375 7.59896 55.3438 7.66146 55.3125 7.73438C55.2812 7.80729 55.2448 7.86458 55.2031 7.90625C55.1615 7.9375 55.1042 7.96875 55.0312 8C54.9688 8.03125 54.9062 8.06771 54.8438 8.10938C54.7604 8.16146 54.6875 8.22396 54.625 8.29688C54.5625 8.36979 54.4948 8.41667 54.4219 8.4375C54.349 8.46875 54.276 8.51042 54.2031 8.5625C54.1406 8.60417 54.0781 8.63542 54.0156 8.65625C53.849 8.70833 53.6979 8.76042 53.5625 8.8125C53.4375 8.86458 53.3333 8.94792 53.25 9.0625ZM51.7188 8.375C51.7917 8.29167 51.875 8.25 51.9688 8.25C52.0625 8.23958 52.1615 8.20833 52.2656 8.15625C52.3281 8.125 52.3906 8.07812 52.4531 8.01562C52.526 7.95312 52.599 7.88021 52.6719 7.79688C52.7448 7.71354 52.8073 7.63021 52.8594 7.54688C52.9115 7.45312 52.9531 7.375 52.9844 7.3125C53.0677 7.15625 53.0833 6.99479 53.0312 6.82812C52.9792 6.65104 52.9167 6.50521 52.8438 6.39062C52.8229 6.34896 52.776 6.28646 52.7031 6.20312C52.6302 6.10938 52.5677 6.05208 52.5156 6.03125C52.4844 6.02083 52.4427 6.02083 52.3906 6.03125C52.349 6.04167 52.3073 6.04167 52.2656 6.03125C52.1302 6.01042 51.974 5.98958 51.7969 5.96875C51.6302 5.94792 51.4688 5.92708 51.3125 5.90625C50.9479 5.875 50.6927 5.9375 50.5469 6.09375C50.4115 6.23958 50.2917 6.47396 50.1875 6.79688C50.1042 7.04688 50.026 7.29688 49.9531 7.54688C49.8906 7.78646 49.8281 8.04167 49.7656 8.3125C49.8906 8.40625 50.026 8.46354 50.1719 8.48438C50.3281 8.49479 50.4896 8.48958 50.6562 8.46875C50.8229 8.4375 50.9948 8.41146 51.1719 8.39062C51.349 8.35938 51.5312 8.35417 51.7188 8.375ZM49.5312 12.0781C49.7604 12.0781 49.9583 12.0208 50.125 11.9062C50.2917 11.7812 50.4635 11.6927 50.6406 11.6406C50.7552 11.6094 50.8698 11.5938 50.9844 11.5938C51.099 11.5938 51.1979 11.5729 51.2812 11.5312C51.3333 11.5104 51.3906 11.4635 51.4531 11.3906C51.526 11.3073 51.5677 11.2552 51.5781 11.2344C51.6094 11.1823 51.6458 11.0677 51.6875 10.8906C51.7396 10.7135 51.776 10.5521 51.7969 10.4062C51.8385 10.0938 51.7812 9.89583 51.625 9.8125C51.4792 9.72917 51.276 9.67708 51.0156 9.65625C50.7344 9.625 50.4635 9.61458 50.2031 9.625C49.9531 9.625 49.7083 9.66146 49.4688 9.73438C49.4271 9.81771 49.3802 9.90625 49.3281 10C49.276 10.0833 49.224 10.1719 49.1719 10.2656C49.1198 10.349 49.0625 10.4375 49 10.5312C48.9375 10.6146 48.8854 10.7031 48.8438 10.7969C48.7917 10.9115 48.7656 11.0365 48.7656 11.1719C48.776 11.3073 48.7552 11.4479 48.7031 11.5938C48.7344 11.6562 48.7604 11.7188 48.7812 11.7812C48.8021 11.8438 48.8385 11.901 48.8906 11.9531C49.0052 11.9323 49.1094 11.9479 49.2031 12C49.2969 12.0521 49.4062 12.0781 49.5312 12.0781ZM64.2031 6.1875C64.3073 6.39583 64.3854 6.58854 64.4375 6.76562C64.4896 6.94271 64.5312 7.18229 64.5625 7.48438C64.5833 7.69271 64.6042 7.88021 64.625 8.04688C64.6562 8.20312 64.6615 8.40104 64.6406 8.64062C64.6302 8.80729 64.6042 8.98438 64.5625 9.17188C64.5208 9.34896 64.4688 9.51562 64.4062 9.67188C64.3125 9.95312 64.224 10.1979 64.1406 10.4062C64.0573 10.6146 63.9583 10.8385 63.8438 11.0781C63.7708 11.2135 63.6979 11.3229 63.625 11.4062C63.5521 11.4896 63.474 11.5781 63.3906 11.6719C63.3698 11.7031 63.349 11.7396 63.3281 11.7812C63.3177 11.8229 63.2969 11.8594 63.2656 11.8906C63.1302 12.0469 62.9427 12.2083 62.7031 12.375C62.474 12.5417 62.2604 12.6615 62.0625 12.7344C61.9896 12.7552 61.9115 12.7708 61.8281 12.7812C61.7552 12.7812 61.6771 12.7917 61.5938 12.8125C61.4896 12.8542 61.401 12.9167 61.3281 13C61.2552 13.0729 61.1615 13.125 61.0469 13.1562C60.9844 13.1771 60.9062 13.1927 60.8125 13.2031C60.7292 13.224 60.6458 13.2448 60.5625 13.2656C60.3542 13.3177 60.0938 13.3698 59.7812 13.4219C59.4792 13.474 59.1979 13.4688 58.9375 13.4062C58.8958 13.3958 58.8542 13.375 58.8125 13.3438C58.7708 13.3125 58.724 13.2865 58.6719 13.2656C58.6198 13.2448 58.5677 13.2292 58.5156 13.2188C58.4635 13.2083 58.4167 13.1927 58.375 13.1719C58.2396 13.1198 58.1094 13.0469 57.9844 12.9531C57.8594 12.8594 57.7292 12.7865 57.5938 12.7344C57.4479 12.651 57.3021 12.5781 57.1562 12.5156C57.0104 12.4427 56.9115 12.3177 56.8594 12.1406C56.6823 12.0885 56.5573 11.9688 56.4844 11.7812C56.4115 11.5938 56.3229 11.4271 56.2188 11.2812C56.1875 11.2292 56.1406 11.1875 56.0781 11.1562C56.026 11.1146 55.9896 11.0677 55.9688 11.0156C55.8958 10.901 55.8385 10.7188 55.7969 10.4688C55.7552 10.2083 55.7292 9.98958 55.7188 9.8125C55.7083 9.625 55.7188 9.44792 55.75 9.28125C55.7917 9.10417 55.8333 8.93229 55.875 8.76562C55.9271 8.59896 55.9792 8.4375 56.0312 8.28125C56.0938 8.125 56.1458 7.97396 56.1875 7.82812C56.2292 7.65104 56.3073 7.51042 56.4219 7.40625C56.5365 7.30208 56.6458 7.1875 56.75 7.0625C56.7917 7.02083 56.8229 6.97396 56.8438 6.92188C56.8646 6.86979 56.8958 6.81771 56.9375 6.76562C57.0208 6.66146 57.1146 6.57292 57.2188 6.5C57.3229 6.41667 57.4219 6.33333 57.5156 6.25C57.6198 6.16667 57.7292 6.08854 57.8438 6.01562C57.9583 5.93229 58.0521 5.84896 58.125 5.76562C58.2083 5.65104 58.2708 5.53646 58.3125 5.42188C58.3646 5.30729 58.4427 5.20833 58.5469 5.125C58.6615 5.03125 58.7865 4.96354 58.9219 4.92188C59.0677 4.88021 59.2344 4.83333 59.4219 4.78125C59.599 4.73958 59.7708 4.68229 59.9375 4.60938C60.1146 4.52604 60.3021 4.47396 60.5 4.45312C60.6875 4.43229 60.8906 4.42188 61.1094 4.42188C61.3281 4.41146 61.5417 4.41667 61.75 4.4375C61.9688 4.45833 62.1719 4.49479 62.3594 4.54688C62.5573 4.59896 62.7292 4.67188 62.875 4.76562C62.9479 4.80729 63.0208 4.86979 63.0938 4.95312C63.1771 5.03646 63.2552 5.11458 63.3281 5.1875C63.4948 5.35417 63.6354 5.52604 63.75 5.70312C63.875 5.86979 64.026 6.03125 64.2031 6.1875ZM60.7969 5.48438C60.7552 5.48438 60.6927 5.5 60.6094 5.53125C60.5365 5.5625 60.4583 5.59896 60.375 5.64062C60.3021 5.67188 60.2344 5.70833 60.1719 5.75C60.1094 5.79167 60.0625 5.82292 60.0312 5.84375C59.9062 5.95833 59.7917 6.10417 59.6875 6.28125C59.5938 6.44792 59.4844 6.59896 59.3594 6.73438C59.3073 6.78646 59.25 6.82812 59.1875 6.85938C59.1354 6.88021 59.0938 6.91146 59.0625 6.95312C58.8854 7.15104 58.7552 7.38021 58.6719 7.64062C58.599 7.90104 58.5208 8.15104 58.4375 8.39062C58.3438 8.64062 58.2552 8.92188 58.1719 9.23438C58.0885 9.54688 58.0625 9.84375 58.0938 10.125C58.1042 10.1875 58.125 10.2708 58.1562 10.375C58.1979 10.4688 58.2344 10.5573 58.2656 10.6406C58.3073 10.7344 58.3438 10.8281 58.375 10.9219C58.4167 11.0052 58.4583 11.0833 58.5 11.1562C58.5625 11.2812 58.6406 11.4167 58.7344 11.5625C58.8385 11.6979 58.9531 11.8177 59.0781 11.9219C59.2135 12.0156 59.3594 12.0885 59.5156 12.1406C59.6823 12.1823 59.8594 12.1771 60.0469 12.125C60.1615 12.0833 60.3021 12.0208 60.4688 11.9375C60.6354 11.8438 60.7865 11.7552 60.9219 11.6719C61.1198 11.5469 61.2604 11.4219 61.3438 11.2969C61.4271 11.1615 61.5104 10.9896 61.5938 10.7812C61.6146 10.7292 61.6406 10.6823 61.6719 10.6406C61.7135 10.5885 61.75 10.5365 61.7812 10.4844C61.8438 10.3698 61.8958 10.2448 61.9375 10.1094C61.9792 9.97396 62.0312 9.84375 62.0938 9.71875C62.2188 9.4375 62.2969 9.16667 62.3281 8.90625C62.3594 8.64583 62.3854 8.33333 62.4062 7.96875C62.4167 7.77083 62.401 7.625 62.3594 7.53125C62.3281 7.4375 62.3021 7.30729 62.2812 7.14062C62.2708 7.02604 62.2656 6.92188 62.2656 6.82812C62.2656 6.72396 62.2448 6.63542 62.2031 6.5625C62.151 6.46875 62.0521 6.40625 61.9062 6.375C61.7708 6.34375 61.6615 6.28646 61.5781 6.20312C61.4948 6.06771 61.4062 5.9375 61.3125 5.8125C61.2188 5.6875 61.1042 5.58333 60.9688 5.5C60.9167 5.51042 60.8802 5.51042 60.8594 5.5C60.8385 5.48958 60.8177 5.48438 60.7969 5.48438ZM71.5938 4.84375C71.6771 4.86458 71.7604 4.875 71.8438 4.875C71.9271 4.875 72.0104 4.88542 72.0938 4.90625C72.125 4.90625 72.1562 4.91667 72.1875 4.9375C72.2188 4.95833 72.25 4.97396 72.2812 4.98438C72.3125 4.99479 72.3438 4.99479 72.375 4.98438C72.4062 4.97396 72.4375 4.97396 72.4688 4.98438C72.7083 5.04688 72.901 5.14583 73.0469 5.28125C73.1927 5.40625 73.3385 5.5625 73.4844 5.75C73.5469 5.85417 73.625 5.97917 73.7188 6.125C73.8125 6.26042 73.8906 6.41667 73.9531 6.59375C74.0156 6.76042 74.0521 6.9375 74.0625 7.125C74.0729 7.3125 74.0365 7.5 73.9531 7.6875C73.9323 7.73958 73.901 7.80729 73.8594 7.89062C73.8177 7.96354 73.776 8.04167 73.7344 8.125C73.6719 8.23958 73.5938 8.35938 73.5 8.48438C73.4062 8.60938 73.3073 8.69792 73.2031 8.75C73.1198 8.80208 73.0469 8.84896 72.9844 8.89062C72.9323 8.93229 72.8646 8.97396 72.7812 9.01562C72.6354 9.06771 72.4896 9.14583 72.3438 9.25C72.2083 9.34375 72.0677 9.42188 71.9219 9.48438C71.8698 9.50521 71.8125 9.52083 71.75 9.53125C71.6979 9.53125 71.6458 9.54167 71.5938 9.5625C71.5208 9.60417 71.4635 9.66146 71.4219 9.73438C71.3802 9.80729 71.3021 9.85938 71.1875 9.89062C71.4479 9.95312 71.6875 10.099 71.9062 10.3281C72.125 10.5469 72.2917 10.776 72.4062 11.0156C72.4583 11.1615 72.5312 11.2917 72.625 11.4062C72.7188 11.5208 72.7604 11.651 72.75 11.7969C72.8229 11.8594 72.8802 11.9427 72.9219 12.0469C72.974 12.1406 73.0156 12.2448 73.0469 12.3594C73.0781 12.474 73.1042 12.5938 73.125 12.7188C73.1562 12.8333 73.1927 12.9375 73.2344 13.0312C73.2969 13.1667 73.3646 13.276 73.4375 13.3594C73.5104 13.4531 73.5885 13.5365 73.6719 13.6094C73.7552 13.6927 73.8385 13.776 73.9219 13.8594C74.0052 13.9531 74.0781 14.0677 74.1406 14.2031C74.1823 14.1927 74.2135 14.1771 74.2344 14.1562C74.2656 14.1458 74.3073 14.1458 74.3594 14.1562C74.5156 14.2708 74.6875 14.3594 74.875 14.4219C75.0729 14.4844 75.3125 14.5365 75.5938 14.5781C75.8333 14.6198 76.0573 14.6302 76.2656 14.6094C76.4844 14.599 76.7083 14.5729 76.9375 14.5312C77.0104 14.5208 77.099 14.4896 77.2031 14.4375C77.3177 14.3958 77.4271 14.3594 77.5312 14.3281C77.6458 14.2969 77.7448 14.2812 77.8281 14.2812C77.9115 14.2917 77.9531 14.349 77.9531 14.4531C77.9531 14.526 77.9062 14.6146 77.8125 14.7188C77.7188 14.8229 77.6354 14.901 77.5625 14.9531C77.3854 15.0781 77.1823 15.1771 76.9531 15.25C76.724 15.3229 76.4844 15.3802 76.2344 15.4219C75.9844 15.474 75.7292 15.5104 75.4688 15.5312C75.2083 15.5521 74.9635 15.5677 74.7344 15.5781C74.5885 15.5781 74.4531 15.5521 74.3281 15.5C74.2135 15.4583 74.1094 15.4271 74.0156 15.4062C73.8073 15.375 73.6198 15.3385 73.4531 15.2969C73.2969 15.2552 73.1458 15.1927 73 15.1094C72.875 15.0365 72.7656 14.9323 72.6719 14.7969C72.5781 14.6719 72.4479 14.5938 72.2812 14.5625C72.0104 14.3229 71.7396 14.0781 71.4688 13.8281C71.1979 13.5885 70.9844 13.2865 70.8281 12.9219C70.776 12.8281 70.7188 12.7396 70.6562 12.6562C70.5938 12.5625 70.5469 12.4635 70.5156 12.3594C70.4844 12.2865 70.4635 12.2083 70.4531 12.125C70.4531 12.0417 70.4427 11.9479 70.4219 11.8438C70.401 11.7292 70.3698 11.6094 70.3281 11.4844C70.2865 11.349 70.2448 11.224 70.2031 11.1094C70.1927 11.0781 70.1771 11.0469 70.1562 11.0156C70.1354 10.9844 70.1198 10.9531 70.1094 10.9219C70.0885 10.8594 70.0677 10.7865 70.0469 10.7031C70.026 10.6094 69.9896 10.5365 69.9375 10.4844C69.8854 10.4427 69.7969 10.3958 69.6719 10.3438C69.5573 10.2917 69.4583 10.2552 69.375 10.2344C69.2604 10.2135 69.1458 10.2188 69.0312 10.25C68.9271 10.2812 68.8281 10.3021 68.7344 10.3125C68.599 10.3333 68.4688 10.3385 68.3438 10.3281C68.2188 10.3073 68.1146 10.3125 68.0312 10.3438C67.8854 10.3958 67.7656 10.5312 67.6719 10.75C67.5781 10.9688 67.5208 11.1979 67.5 11.4375C67.4583 11.6771 67.3958 11.9115 67.3125 12.1406C67.2292 12.3594 67.1615 12.5729 67.1094 12.7812C67.0677 12.9167 67 13.026 66.9062 13.1094C66.8125 13.2031 66.6823 13.2396 66.5156 13.2188C66.4323 13.2083 66.3646 13.1979 66.3125 13.1875C66.2708 13.1875 66.2135 13.1667 66.1406 13.125C66.0885 13.1458 65.9948 13.1927 65.8594 13.2656C65.7344 13.349 65.6458 13.4062 65.5938 13.4375C65.25 13.5417 65.0521 13.5156 65 13.3594C64.9583 13.2031 64.9792 12.9531 65.0625 12.6094C65.1146 12.3906 65.1927 12.1771 65.2969 11.9688C65.4115 11.7604 65.4896 11.5833 65.5312 11.4375C65.5521 11.3438 65.5573 11.2604 65.5469 11.1875C65.5469 11.1042 65.5417 11.026 65.5312 10.9531C65.5208 10.8802 65.5156 10.8177 65.5156 10.7656C65.5156 10.7031 65.5365 10.6458 65.5781 10.5938C65.5885 10.4792 65.6198 10.3906 65.6719 10.3281C65.724 10.2552 65.7604 10.1615 65.7812 10.0469C65.8021 9.94271 65.8281 9.83333 65.8594 9.71875C65.8906 9.60417 65.9115 9.49479 65.9219 9.39062C65.9323 9.26562 65.9375 9.15104 65.9375 9.04688C65.9479 8.93229 65.9844 8.80208 66.0469 8.65625C66.099 8.52083 66.151 8.38542 66.2031 8.25C66.2656 8.10417 66.3073 7.96354 66.3281 7.82812C66.349 7.72396 66.3594 7.61979 66.3594 7.51562C66.3698 7.40104 66.3958 7.29167 66.4375 7.1875C66.4583 7.10417 66.5 7.03646 66.5625 6.98438C66.6354 6.93229 66.6823 6.86458 66.7031 6.78125C66.7135 6.71875 66.7083 6.66146 66.6875 6.60938C66.6667 6.55729 66.6667 6.50521 66.6875 6.45312C66.75 6.24479 66.7708 6.08333 66.75 5.96875C66.7292 5.84375 66.6927 5.74479 66.6406 5.67188C66.599 5.58854 66.5573 5.51042 66.5156 5.4375C66.4844 5.36458 66.4844 5.26562 66.5156 5.14062C66.5677 5.13021 66.6146 5.08854 66.6562 5.01562C66.6979 4.93229 66.7552 4.88021 66.8281 4.85938C66.8698 4.84896 66.9479 4.84375 67.0625 4.84375C67.1771 4.83333 67.3021 4.82812 67.4375 4.82812C67.5729 4.81771 67.7031 4.81771 67.8281 4.82812C67.9531 4.82812 68.0521 4.82812 68.125 4.82812C68.2083 4.83854 68.3125 4.83854 68.4375 4.82812C68.5625 4.80729 68.6927 4.79688 68.8281 4.79688C68.9635 4.78646 69.0885 4.78125 69.2031 4.78125C69.3281 4.78125 69.4323 4.80208 69.5156 4.84375H71.5938ZM69.2188 8.82812C69.3021 8.82812 69.3802 8.80729 69.4531 8.76562C69.5365 8.72396 69.6146 8.71354 69.6875 8.73438C69.7917 8.75521 69.8958 8.77083 70 8.78125C70.1042 8.79167 70.2188 8.80729 70.3438 8.82812C70.3958 8.83854 70.4479 8.83333 70.5 8.8125C70.5521 8.79167 70.6198 8.78646 70.7031 8.79688C70.8698 8.67188 71.0156 8.57812 71.1406 8.51562C71.276 8.45312 71.401 8.32812 71.5156 8.14062C71.5677 8.04688 71.625 7.95833 71.6875 7.875C71.75 7.78125 71.7917 7.70312 71.8125 7.64062C71.8854 7.40104 71.875 7.19792 71.7812 7.03125C71.6875 6.85417 71.599 6.69792 71.5156 6.5625C71.4115 6.40625 71.3125 6.29688 71.2188 6.23438C71.125 6.16146 70.9688 6.13542 70.75 6.15625C70.5729 6.16667 70.3906 6.16667 70.2031 6.15625C70.0156 6.13542 69.8333 6.13021 69.6562 6.14062C69.4896 6.15104 69.3385 6.18229 69.2031 6.23438C69.0677 6.28646 68.9688 6.38021 68.9062 6.51562C68.8542 6.67188 68.7917 6.84375 68.7188 7.03125C68.6458 7.21875 68.5781 7.41146 68.5156 7.60938C68.4531 7.79688 68.401 7.98958 68.3594 8.1875C68.3177 8.38542 68.2969 8.57812 68.2969 8.76562C68.4531 8.74479 68.6094 8.75521 68.7656 8.79688C68.9219 8.82812 69.0729 8.83854 69.2188 8.82812ZM80.8438 7.3125C80.9583 7.39583 81.0365 7.5 81.0781 7.625C81.1198 7.73958 81.1927 7.84375 81.2969 7.9375C81.3802 8.02083 81.4323 8.08333 81.4531 8.125C81.474 8.16667 81.5104 8.23958 81.5625 8.34375C81.6458 8.48958 81.724 8.66667 81.7969 8.875C81.8698 9.07292 81.9115 9.25 81.9219 9.40625C81.9635 10 81.9271 10.5052 81.8125 10.9219C81.6979 11.3281 81.4896 11.7031 81.1875 12.0469C81.0625 12.1094 80.9479 12.1927 80.8438 12.2969C80.7396 12.3906 80.6302 12.4948 80.5156 12.6094C80.4115 12.7135 80.2917 12.8125 80.1562 12.9062C80.0312 13 79.875 13.0729 79.6875 13.125C79.4792 13.1771 79.2604 13.2135 79.0312 13.2344C78.8021 13.2552 78.5677 13.276 78.3281 13.2969C78.0156 13.3177 77.6979 13.3438 77.375 13.375C77.0625 13.4062 76.7708 13.3802 76.5 13.2969C76.4479 13.276 76.401 13.2448 76.3594 13.2031C76.3281 13.1615 76.2865 13.1302 76.2344 13.1094C76.2031 13.0885 76.1615 13.0833 76.1094 13.0938C76.0573 13.1042 76.0156 13.1042 75.9844 13.0938C75.9323 13.0729 75.8906 13.0573 75.8594 13.0469C75.8385 13.0365 75.8073 13.0312 75.7656 13.0312C75.6094 12.9167 75.4375 12.7865 75.25 12.6406C75.0729 12.4948 74.9479 12.3073 74.875 12.0781C74.8542 11.9948 74.8333 11.9062 74.8125 11.8125C74.8021 11.7083 74.7812 11.6094 74.75 11.5156C74.7188 11.4219 74.6875 11.3229 74.6562 11.2188C74.625 11.1042 74.6042 10.9948 74.5938 10.8906C74.5938 10.776 74.6042 10.6719 74.625 10.5781C74.6562 10.474 74.7188 10.3802 74.8125 10.2969C74.7917 10.2135 74.7708 10.1354 74.75 10.0625C74.7292 9.97917 74.7031 9.90625 74.6719 9.84375C74.6927 9.63542 74.7448 9.44271 74.8281 9.26562C74.9219 9.08854 75.0156 8.92708 75.1094 8.78125C75.2344 8.58333 75.349 8.41667 75.4531 8.28125C75.5573 8.14583 75.6979 7.98438 75.875 7.79688C76 7.68229 76.1146 7.5625 76.2188 7.4375C76.3333 7.30208 76.4479 7.1875 76.5625 7.09375C76.7396 6.96875 76.9062 6.86979 77.0625 6.79688C77.2188 6.71354 77.3594 6.57812 77.4844 6.39062C77.3698 6.24479 77.2708 6.09896 77.1875 5.95312C77.1042 5.80729 77.0312 5.66146 76.9688 5.51562C76.9062 5.36979 76.8438 5.22396 76.7812 5.07812C76.7188 4.92188 76.651 4.77083 76.5781 4.625C76.6198 4.48958 76.6198 4.36979 76.5781 4.26562C76.5365 4.16146 76.526 4.04688 76.5469 3.92188C76.5573 3.84896 76.5885 3.78125 76.6406 3.71875C76.6927 3.64583 76.7396 3.56771 76.7812 3.48438C76.8333 3.34896 76.875 3.21354 76.9062 3.07812C76.9479 2.94271 77.0156 2.8125 77.1094 2.6875C77.2865 2.4375 77.5 2.21354 77.75 2.01562C78.0104 1.80729 78.2969 1.64583 78.6094 1.53125C78.724 1.47917 78.8594 1.4375 79.0156 1.40625C79.1719 1.36458 79.3021 1.33333 79.4062 1.3125C79.4792 1.30208 79.5521 1.30729 79.625 1.32812C79.6979 1.34896 79.776 1.35938 79.8594 1.35938C79.9948 1.35938 80.1302 1.35938 80.2656 1.35938C80.401 1.34896 80.5312 1.34896 80.6562 1.35938C80.7812 1.36979 80.8958 1.39062 81 1.42188C81.1146 1.45312 81.2135 1.50521 81.2969 1.57812C81.3281 1.59896 81.3594 1.60417 81.3906 1.59375C81.4323 1.58333 81.4844 1.58854 81.5469 1.60938C81.651 1.65104 81.724 1.70833 81.7656 1.78125C81.8073 1.84375 81.875 1.90104 81.9688 1.95312C82.0312 1.98438 82.1198 2.00521 82.2344 2.01562C82.349 2.02604 82.4635 2.03646 82.5781 2.04688C82.6927 2.05729 82.7917 2.07812 82.875 2.10938C82.9688 2.14062 83.0156 2.19271 83.0156 2.26562C83.0156 2.33854 82.9896 2.40104 82.9375 2.45312C82.8958 2.49479 82.8385 2.53125 82.7656 2.5625C82.6927 2.59375 82.6146 2.625 82.5312 2.65625C82.4583 2.67708 82.401 2.70312 82.3594 2.73438C82.3073 2.75521 82.2656 2.78646 82.2344 2.82812C82.2135 2.86979 82.1771 2.90625 82.125 2.9375C82.0625 2.97917 81.9583 3.03125 81.8125 3.09375C81.6667 3.15625 81.5156 3.21354 81.3594 3.26562C81.2031 3.31771 81.0521 3.35938 80.9062 3.39062C80.7604 3.42188 80.651 3.42708 80.5781 3.40625C80.4635 3.375 80.3646 3.32292 80.2812 3.25C80.2083 3.17708 80.099 3.14062 79.9531 3.14062C79.8281 3.14062 79.7031 3.17188 79.5781 3.23438C79.4531 3.28646 79.3594 3.36458 79.2969 3.46875C79.2448 3.55208 79.1927 3.65104 79.1406 3.76562C79.0885 3.86979 79.0677 3.95833 79.0781 4.03125C79.0781 4.08333 79.0938 4.13021 79.125 4.17188C79.1667 4.21354 79.2031 4.27083 79.2344 4.34375C79.2865 4.45833 79.3229 4.56771 79.3438 4.67188C79.375 4.76562 79.4583 4.83854 79.5938 4.89062C79.7708 4.86979 79.9271 4.8125 80.0625 4.71875C80.1979 4.61458 80.3177 4.50521 80.4219 4.39062C80.474 4.34896 80.5104 4.30208 80.5312 4.25C80.5625 4.19792 80.599 4.15104 80.6406 4.10938C80.7031 4.05729 80.7917 4.00521 80.9062 3.95312C81.0312 3.89062 81.1615 3.83333 81.2969 3.78125C81.4427 3.71875 81.5833 3.66146 81.7188 3.60938C81.8646 3.54688 81.9792 3.48438 82.0625 3.42188C82.3646 3.18229 82.6667 2.95312 82.9688 2.73438C83.2708 2.50521 83.5573 2.27604 83.8281 2.04688C83.974 1.95312 84.1198 1.88542 84.2656 1.84375C84.4219 1.79167 84.5833 1.73958 84.75 1.6875C84.9583 1.625 85.151 1.53646 85.3281 1.42188C85.5156 1.30729 85.7031 1.20833 85.8906 1.125C86.099 1.04167 86.3333 0.953125 86.5938 0.859375C86.8542 0.755208 87.1042 0.6875 87.3438 0.65625C87.4271 0.65625 87.4688 0.677083 87.4688 0.71875C87.4792 0.75 87.4688 0.791667 87.4375 0.84375C87.4167 0.895833 87.3854 0.947917 87.3438 1C87.3021 1.04167 87.2812 1.0625 87.2812 1.0625C87.1979 1.14583 87.1354 1.21354 87.0938 1.26562C87.0625 1.30729 87.0208 1.35417 86.9688 1.40625C86.8229 1.5 86.6667 1.58333 86.5 1.65625C86.3333 1.71875 86.1719 1.79688 86.0156 1.89062C85.7448 2.06771 85.4688 2.23958 85.1875 2.40625C84.9167 2.57292 84.6458 2.75521 84.375 2.95312C84.1771 3.07812 83.9792 3.22917 83.7812 3.40625C83.5938 3.58333 83.4271 3.76042 83.2812 3.9375C83.1562 4.10417 83.0677 4.24479 83.0156 4.35938C82.9635 4.46354 82.875 4.57812 82.75 4.70312C82.5 4.96354 82.1979 5.21354 81.8438 5.45312C81.4896 5.69271 81.1667 5.94271 80.875 6.20312C80.8125 6.25521 80.724 6.33854 80.6094 6.45312C80.4948 6.56771 80.4375 6.64583 80.4375 6.6875C80.4271 6.73958 80.4375 6.79688 80.4688 6.85938C80.5104 6.91146 80.5573 6.96875 80.6094 7.03125C80.6615 7.08333 80.7083 7.13542 80.75 7.1875C80.8021 7.23958 80.8333 7.28125 80.8438 7.3125ZM78.1719 8.53125C78.099 8.61458 78.0365 8.70312 77.9844 8.79688C77.9427 8.89062 77.8906 8.98438 77.8281 9.07812C77.8073 9.11979 77.776 9.15625 77.7344 9.1875C77.7031 9.21875 77.6771 9.26042 77.6562 9.3125C77.6146 9.39583 77.5781 9.48958 77.5469 9.59375C77.5156 9.6875 77.474 9.78125 77.4219 9.875C77.3802 9.97917 77.3385 10.0781 77.2969 10.1719C77.2656 10.2552 77.2448 10.3281 77.2344 10.3906C77.2344 10.4427 77.2396 10.5 77.25 10.5625C77.2708 10.6146 77.2917 10.6823 77.3125 10.7656C77.3542 11.0052 77.4167 11.1719 77.5 11.2656C77.5938 11.349 77.7188 11.4479 77.875 11.5625C77.9583 11.6146 78.0365 11.6667 78.1094 11.7188C78.1823 11.7604 78.2448 11.7812 78.2969 11.7812C78.4427 11.8021 78.5938 11.7656 78.75 11.6719C78.9167 11.5677 79.0365 11.4479 79.1094 11.3125C79.1927 11.1562 79.2552 10.9531 79.2969 10.7031C79.3385 10.4427 79.3646 10.2031 79.375 9.98438C79.375 9.91146 79.375 9.83333 79.375 9.75C79.3854 9.65625 79.3802 9.58333 79.3594 9.53125C79.349 9.47917 79.3281 9.42188 79.2969 9.35938C79.2656 9.28646 79.2344 9.21354 79.2031 9.14062C79.1302 8.96354 79.0469 8.77604 78.9531 8.57812C78.8594 8.36979 78.7552 8.19792 78.6406 8.0625C78.5469 8.13542 78.4635 8.20833 78.3906 8.28125C78.3177 8.35417 78.2448 8.4375 78.1719 8.53125Z" fill="url(#paint0_linear_132_76)"/>
<defs>
<linearGradient id="paint0_linear_132_76" x1="1" y1="20" x2="84" y2="20" gradientUnits="userSpaceOnUse">
<stop stop-color="#69E4FB"/>
<stop offset="1" stop-color="#E332EA"/>
</linearGradient>
</defs>
</svg>
