<svg width="200" height="200" viewBox="0 0 100 100" fill="none" xmlns="http://www.w3.org/2000/svg">
<path d="M100 50C100 77.6142 77.6142 100 50 100C22.3858 100 0 77.6142 0 50C0 22.3858 22.3858 0 50 0C77.6142 0 100 22.3858 100 50Z" fill="white"/>
<path d="M21.4219 42.3594C21.4844 42.526 21.4635 42.6719 21.3594 42.7969C21.2656 42.9115 21.1667 42.9948 21.0625 43.0469C20.875 43.1406 20.6458 43.2031 20.375 43.2344C20.1146 43.2656 19.8802 43.3229 19.6719 43.4062C19.5573 43.4583 19.4688 43.526 19.4062 43.6094C19.3438 43.6823 19.2552 43.7344 19.1406 43.7656C18.776 43.7656 18.4115 43.7604 18.0469 43.75C17.6927 43.7396 17.3229 43.75 16.9375 43.7812C16.8646 43.7917 16.7917 43.8125 16.7188 43.8438C16.6458 43.8646 16.5729 43.875 16.5 43.875C16.4062 43.875 16.3073 43.8594 16.2031 43.8281C16.1094 43.7969 16.0104 43.7917 15.9062 43.8125C15.8542 43.8229 15.8073 43.849 15.7656 43.8906C15.7344 43.9219 15.6927 43.9583 15.6406 44C15.4531 44.1146 15.2448 44.2292 15.0156 44.3438C14.7865 44.4479 14.5729 44.5677 14.375 44.7031C14.1979 44.8281 14.0469 44.9896 13.9219 45.1875C13.7969 45.375 13.6667 45.5729 13.5312 45.7812C13.4896 45.8542 13.4427 45.9271 13.3906 46C13.349 46.0625 13.3177 46.1198 13.2969 46.1719C13.276 46.2344 13.2656 46.3073 13.2656 46.3906C13.276 46.4635 13.2708 46.5417 13.25 46.625C13.2292 46.75 13.2031 46.8854 13.1719 47.0312C13.1406 47.1771 13.099 47.3125 13.0469 47.4375C12.9948 47.5729 12.9375 47.7083 12.875 47.8438C12.8229 47.9688 12.7865 48.0938 12.7656 48.2188C12.7448 48.3646 12.7292 48.5104 12.7188 48.6562C12.7188 48.7917 12.6927 48.9375 12.6406 49.0938C12.6094 49.2292 12.5729 49.3646 12.5312 49.5C12.5 49.625 12.4792 49.7604 12.4688 49.9062C12.4583 50.1458 12.474 50.3802 12.5156 50.6094C12.5573 50.8281 12.5781 51.0573 12.5781 51.2969C12.7552 51.5052 12.9167 51.7083 13.0625 51.9062C13.2188 52.0938 13.4219 52.2292 13.6719 52.3125C13.7656 52.3438 13.8698 52.3594 13.9844 52.3594C14.099 52.3594 14.2188 52.3542 14.3438 52.3438C14.4688 52.3229 14.5938 52.3073 14.7188 52.2969C14.8542 52.276 14.9844 52.2708 15.1094 52.2812C15.2031 52.2917 15.276 52.3125 15.3281 52.3438C15.3906 52.3646 15.4479 52.3854 15.5 52.4062C15.5625 52.4271 15.625 52.4479 15.6875 52.4688C15.7604 52.4896 15.8438 52.4948 15.9375 52.4844C16.1146 52.474 16.2917 52.4635 16.4688 52.4531C16.6458 52.4427 16.8229 52.4271 17 52.4062C17.2812 52.3854 17.5365 52.3333 17.7656 52.25C18.0052 52.1667 18.2344 52.0885 18.4531 52.0156C18.5052 51.9948 18.5573 51.9844 18.6094 51.9844C18.6615 51.9844 18.7135 51.974 18.7656 51.9531C18.849 51.9219 18.9219 51.8854 18.9844 51.8438C19.0573 51.8021 19.1406 51.7604 19.2344 51.7188C19.3281 51.6667 19.4219 51.6146 19.5156 51.5625C19.6198 51.5104 19.6979 51.4948 19.75 51.5156C19.8229 51.5365 19.8646 51.6094 19.875 51.7344C19.8958 51.849 19.901 51.9219 19.8906 51.9531C19.8698 52.026 19.8125 52.0885 19.7188 52.1406C19.625 52.1927 19.5312 52.2604 19.4375 52.3438C19.3333 52.4167 19.2448 52.4844 19.1719 52.5469C19.099 52.6094 19.026 52.6667 18.9531 52.7188C18.776 52.8438 18.5885 52.9583 18.3906 53.0625C18.2031 53.1667 18.0312 53.2708 17.875 53.375C17.7292 53.4583 17.6094 53.5469 17.5156 53.6406C17.4219 53.724 17.3021 53.7917 17.1562 53.8438C17 53.9062 16.8229 53.9479 16.625 53.9688C16.4271 53.9792 16.2552 54.0104 16.1094 54.0625C15.9948 54.1042 15.9062 54.1615 15.8438 54.2344C15.7917 54.3177 15.6927 54.3802 15.5469 54.4219C15.276 54.5156 14.9896 54.5729 14.6875 54.5938C14.3854 54.6146 14.0677 54.6042 13.7344 54.5625C13.2344 54.4896 12.7396 54.3646 12.25 54.1875C11.7708 54.0208 11.3438 53.8333 10.9688 53.625C10.9167 53.4792 10.8229 53.3646 10.6875 53.2812C10.5521 53.1979 10.4427 53.0885 10.3594 52.9531C10.2448 52.8073 10.1458 52.6562 10.0625 52.5C9.98958 52.3333 9.86458 52.1979 9.6875 52.0938C9.72917 51.8438 9.69271 51.651 9.57812 51.5156C9.46354 51.3698 9.34896 51.2344 9.23438 51.1094C9.11979 50.6823 9.04167 50.2344 9 49.7656C8.96875 49.2969 9.00521 48.8333 9.10938 48.375C9.13021 48.2917 9.15625 48.2188 9.1875 48.1562C9.22917 48.0938 9.26042 48.026 9.28125 47.9531C9.3125 47.8594 9.33333 47.7604 9.34375 47.6562C9.35417 47.5521 9.36979 47.4583 9.39062 47.375C9.48438 47.0312 9.60938 46.7188 9.76562 46.4375C9.92188 46.1458 10.0885 45.8594 10.2656 45.5781C10.349 45.4531 10.4323 45.3385 10.5156 45.2344C10.6094 45.1302 10.7031 45.0156 10.7969 44.8906C10.8385 44.8385 10.875 44.7865 10.9062 44.7344C10.9479 44.6719 10.9948 44.6146 11.0469 44.5625C11.1302 44.4792 11.224 44.4115 11.3281 44.3594C11.4323 44.2969 11.526 44.224 11.6094 44.1406C11.724 44.0052 11.8073 43.8438 11.8594 43.6562C11.9219 43.4583 12.0104 43.2917 12.125 43.1562C12.1458 43.125 12.1823 43.0885 12.2344 43.0469C12.2969 43.0052 12.3594 42.9635 12.4219 42.9219C12.4948 42.8802 12.5625 42.8438 12.625 42.8125C12.6979 42.7708 12.7552 42.7396 12.7969 42.7188C13.0156 42.6146 13.2396 42.5521 13.4688 42.5312C13.7083 42.5 13.9635 42.4427 14.2344 42.3594C14.3906 42.3073 14.5521 42.2552 14.7188 42.2031C14.8854 42.151 15.0417 42.1146 15.1875 42.0938C15.4271 42.0521 15.7031 42.026 16.0156 42.0156C16.3281 42.0052 16.6198 42.026 16.8906 42.0781C16.9323 42.0885 16.9688 42.1042 17 42.125C17.0312 42.1354 17.0729 42.1458 17.125 42.1562C17.2396 42.1771 17.349 42.1771 17.4531 42.1562C17.5677 42.1354 17.6719 42.1354 17.7656 42.1562C17.8177 42.1667 17.8646 42.1875 17.9062 42.2188C17.9479 42.2396 18 42.2552 18.0625 42.2656C18.1146 42.2865 18.1719 42.2969 18.2344 42.2969C18.2969 42.2865 18.3594 42.2917 18.4219 42.3125C18.4844 42.3333 18.5521 42.3594 18.625 42.3906C18.6979 42.4115 18.7656 42.4323 18.8281 42.4531C18.974 42.474 19.1302 42.4844 19.2969 42.4844C19.4635 42.4844 19.6198 42.4792 19.7656 42.4688C20.0469 42.4479 20.3229 42.4115 20.5938 42.3594C20.8646 42.3073 21.1406 42.3073 21.4219 42.3594ZM28.7344 47.1875C28.8385 47.3958 28.9167 47.5885 28.9688 47.7656C29.0208 47.9427 29.0625 48.1823 29.0938 48.4844C29.1146 48.6927 29.1354 48.8802 29.1562 49.0469C29.1875 49.2031 29.1927 49.401 29.1719 49.6406C29.1615 49.8073 29.1354 49.9844 29.0938 50.1719C29.0521 50.349 29 50.5156 28.9375 50.6719C28.8438 50.9531 28.7552 51.1979 28.6719 51.4062C28.5885 51.6146 28.4896 51.8385 28.375 52.0781C28.3021 52.2135 28.2292 52.3229 28.1562 52.4062C28.0833 52.4896 28.0052 52.5781 27.9219 52.6719C27.901 52.7031 27.8802 52.7396 27.8594 52.7812C27.849 52.8229 27.8281 52.8594 27.7969 52.8906C27.6615 53.0469 27.474 53.2083 27.2344 53.375C27.0052 53.5417 26.7917 53.6615 26.5938 53.7344C26.5208 53.7552 26.4427 53.7708 26.3594 53.7812C26.2865 53.7812 26.2083 53.7917 26.125 53.8125C26.0208 53.8542 25.9323 53.9167 25.8594 54C25.7865 54.0729 25.6927 54.125 25.5781 54.1562C25.5156 54.1771 25.4375 54.1927 25.3438 54.2031C25.2604 54.224 25.1771 54.2448 25.0938 54.2656C24.8854 54.3177 24.625 54.3698 24.3125 54.4219C24.0104 54.474 23.7292 54.4688 23.4688 54.4062C23.4271 54.3958 23.3854 54.375 23.3438 54.3438C23.3021 54.3125 23.2552 54.2865 23.2031 54.2656C23.151 54.2448 23.099 54.2292 23.0469 54.2188C22.9948 54.2083 22.9479 54.1927 22.9062 54.1719C22.7708 54.1198 22.6406 54.0469 22.5156 53.9531C22.3906 53.8594 22.2604 53.7865 22.125 53.7344C21.9792 53.651 21.8333 53.5781 21.6875 53.5156C21.5417 53.4427 21.4427 53.3177 21.3906 53.1406C21.2135 53.0885 21.0885 52.9688 21.0156 52.7812C20.9427 52.5938 20.8542 52.4271 20.75 52.2812C20.7188 52.2292 20.6719 52.1875 20.6094 52.1562C20.5573 52.1146 20.5208 52.0677 20.5 52.0156C20.4271 51.901 20.3698 51.7188 20.3281 51.4688C20.2865 51.2083 20.2604 50.9896 20.25 50.8125C20.2396 50.625 20.25 50.4479 20.2812 50.2812C20.3229 50.1042 20.3646 49.9323 20.4062 49.7656C20.4583 49.599 20.5104 49.4375 20.5625 49.2812C20.625 49.125 20.6771 48.974 20.7188 48.8281C20.7604 48.651 20.8385 48.5104 20.9531 48.4062C21.0677 48.3021 21.1771 48.1875 21.2812 48.0625C21.3229 48.0208 21.3542 47.974 21.375 47.9219C21.3958 47.8698 21.4271 47.8177 21.4688 47.7656C21.5521 47.6615 21.6458 47.5729 21.75 47.5C21.8542 47.4167 21.9531 47.3333 22.0469 47.25C22.151 47.1667 22.2604 47.0885 22.375 47.0156C22.4896 46.9323 22.5833 46.849 22.6562 46.7656C22.7396 46.651 22.8021 46.5365 22.8438 46.4219C22.8958 46.3073 22.974 46.2083 23.0781 46.125C23.1927 46.0312 23.3177 45.9635 23.4531 45.9219C23.599 45.8802 23.7656 45.8333 23.9531 45.7812C24.1302 45.7396 24.3021 45.6823 24.4688 45.6094C24.6458 45.526 24.8333 45.474 25.0312 45.4531C25.2188 45.4323 25.4219 45.4219 25.6406 45.4219C25.8594 45.4115 26.0729 45.4167 26.2812 45.4375C26.5 45.4583 26.7031 45.4948 26.8906 45.5469C27.0885 45.599 27.2604 45.6719 27.4062 45.7656C27.4792 45.8073 27.5521 45.8698 27.625 45.9531C27.7083 46.0365 27.7865 46.1146 27.8594 46.1875C28.026 46.3542 28.1667 46.526 28.2812 46.7031C28.4062 46.8698 28.5573 47.0312 28.7344 47.1875ZM25.3281 46.4844C25.2865 46.4844 25.224 46.5 25.1406 46.5312C25.0677 46.5625 24.9896 46.599 24.9062 46.6406C24.8333 46.6719 24.7656 46.7083 24.7031 46.75C24.6406 46.7917 24.5938 46.8229 24.5625 46.8438C24.4375 46.9583 24.3229 47.1042 24.2188 47.2812C24.125 47.4479 24.0156 47.599 23.8906 47.7344C23.8385 47.7865 23.7812 47.8281 23.7188 47.8594C23.6667 47.8802 23.625 47.9115 23.5938 47.9531C23.4167 48.151 23.2865 48.3802 23.2031 48.6406C23.1302 48.901 23.0521 49.151 22.9688 49.3906C22.875 49.6406 22.7865 49.9219 22.7031 50.2344C22.6198 50.5469 22.5938 50.8438 22.625 51.125C22.6354 51.1875 22.6562 51.2708 22.6875 51.375C22.7292 51.4688 22.7656 51.5573 22.7969 51.6406C22.8385 51.7344 22.875 51.8281 22.9062 51.9219C22.9479 52.0052 22.9896 52.0833 23.0312 52.1562C23.0938 52.2812 23.1719 52.4167 23.2656 52.5625C23.3698 52.6979 23.4844 52.8177 23.6094 52.9219C23.7448 53.0156 23.8906 53.0885 24.0469 53.1406C24.2135 53.1823 24.3906 53.1771 24.5781 53.125C24.6927 53.0833 24.8333 53.0208 25 52.9375C25.1667 52.8438 25.3177 52.7552 25.4531 52.6719C25.651 52.5469 25.7917 52.4219 25.875 52.2969C25.9583 52.1615 26.0417 51.9896 26.125 51.7812C26.1458 51.7292 26.1719 51.6823 26.2031 51.6406C26.2448 51.5885 26.2812 51.5365 26.3125 51.4844C26.375 51.3698 26.4271 51.2448 26.4688 51.1094C26.5104 50.974 26.5625 50.8438 26.625 50.7188C26.75 50.4375 26.8281 50.1667 26.8594 49.9062C26.8906 49.6458 26.9167 49.3333 26.9375 48.9688C26.9479 48.7708 26.9323 48.625 26.8906 48.5312C26.8594 48.4375 26.8333 48.3073 26.8125 48.1406C26.8021 48.026 26.7969 47.9219 26.7969 47.8281C26.7969 47.724 26.776 47.6354 26.7344 47.5625C26.6823 47.4688 26.5833 47.4062 26.4375 47.375C26.3021 47.3438 26.1927 47.2865 26.1094 47.2031C26.026 47.0677 25.9375 46.9375 25.8438 46.8125C25.75 46.6875 25.6354 46.5833 25.5 46.5C25.4479 46.5104 25.4115 46.5104 25.3906 46.5C25.3698 46.4896 25.349 46.4844 25.3281 46.4844ZM32.9375 53.8594C32.8646 53.849 32.7552 53.875 32.6094 53.9375C32.474 54 32.349 54.0521 32.2344 54.0938C32.1198 54.125 31.9948 54.1615 31.8594 54.2031C31.724 54.2448 31.5938 54.2604 31.4688 54.25C31.3854 54.2396 31.3073 54.2135 31.2344 54.1719C31.1615 54.1406 31.0938 54.1302 31.0312 54.1406C30.9792 54.1406 30.9323 54.1615 30.8906 54.2031C30.849 54.2448 30.7969 54.276 30.7344 54.2969C30.6198 54.3385 30.4844 54.3698 30.3281 54.3906C30.1719 54.4219 30.0208 54.4323 29.875 54.4219C29.7292 54.4115 29.6094 54.3698 29.5156 54.2969C29.4323 54.2344 29.4062 54.1302 29.4375 53.9844C29.4583 53.8906 29.4948 53.7969 29.5469 53.7031C29.6094 53.599 29.6667 53.4844 29.7188 53.3594C29.8021 53.1406 29.8646 52.9115 29.9062 52.6719C29.9479 52.4219 30.0052 52.224 30.0781 52.0781C30.1198 51.9948 30.1823 51.9167 30.2656 51.8438C30.349 51.7708 30.3958 51.6927 30.4062 51.6094C30.4167 51.5469 30.4062 51.4948 30.375 51.4531C30.3438 51.4115 30.3281 51.3542 30.3281 51.2812C30.3281 51.2292 30.3385 51.1771 30.3594 51.125C30.3906 51.0625 30.4115 50.9896 30.4219 50.9062C30.4323 50.8229 30.4323 50.75 30.4219 50.6875C30.4115 50.6146 30.4167 50.5521 30.4375 50.5C30.4583 50.4375 30.4896 50.3802 30.5312 50.3281C30.5729 50.2656 30.6146 50.2083 30.6562 50.1562C30.7083 50.0938 30.75 50.026 30.7812 49.9531C30.8125 49.8802 30.8281 49.7969 30.8281 49.7031C30.8281 49.651 30.8438 49.5677 30.875 49.4531C30.9062 49.3281 30.9167 49.2344 30.9062 49.1719C30.875 48.9531 30.875 48.7708 30.9062 48.625C30.9479 48.4792 30.9948 48.349 31.0469 48.2344C31.1094 48.1094 31.1719 47.9844 31.2344 47.8594C31.3073 47.7344 31.3594 47.5833 31.3906 47.4062C31.4323 47.1875 31.4635 46.9583 31.4844 46.7188C31.5052 46.4792 31.5417 46.2656 31.5938 46.0781C31.6562 45.8802 31.7448 45.724 31.8594 45.6094C31.9844 45.4948 32.1719 45.4531 32.4219 45.4844C32.526 45.6094 32.5938 45.7292 32.625 45.8438C32.6667 45.9583 32.724 46.0885 32.7969 46.2344C32.8281 46.3177 32.9115 46.3906 33.0469 46.4531C33.1823 46.5156 33.276 46.5833 33.3281 46.6562C33.3802 46.7188 33.4375 46.7865 33.5 46.8594C33.5729 46.9219 33.6198 46.9896 33.6406 47.0625C33.6719 47.1979 33.6771 47.3542 33.6562 47.5312C33.6458 47.7083 33.6354 47.8698 33.625 48.0156C33.6146 48.099 33.6042 48.1875 33.5938 48.2812C33.5833 48.3646 33.5677 48.4375 33.5469 48.5C33.526 48.5729 33.5 48.6354 33.4688 48.6875C33.4479 48.7396 33.4323 48.7917 33.4219 48.8438C33.401 48.9479 33.3854 49.0417 33.375 49.125C33.375 49.1979 33.3646 49.2708 33.3438 49.3438C33.2917 49.5 33.2135 49.6354 33.1094 49.75C33.0156 49.8646 32.9427 50 32.8906 50.1562C32.8594 50.2292 32.8333 50.3125 32.8125 50.4062C32.8021 50.5 32.7865 50.5885 32.7656 50.6719C32.7031 50.901 32.6354 51.1615 32.5625 51.4531C32.4896 51.7448 32.4635 52.026 32.4844 52.2969C32.5677 52.276 32.6406 52.2604 32.7031 52.25C32.7656 52.2396 32.8229 52.2344 32.875 52.2344C32.9271 52.224 32.9844 52.224 33.0469 52.2344C33.1198 52.2448 33.2083 52.2604 33.3125 52.2812C33.4688 52.3229 33.6406 52.375 33.8281 52.4375C34.0156 52.5 34.2083 52.5417 34.4062 52.5625C34.5521 52.5729 34.6979 52.5729 34.8438 52.5625C35 52.5521 35.151 52.5573 35.2969 52.5781C35.4427 52.599 35.5781 52.625 35.7031 52.6562C35.8385 52.6771 35.9635 52.6771 36.0781 52.6562C36.1302 52.6354 36.1667 52.6198 36.1875 52.6094C36.2188 52.5885 36.2552 52.5729 36.2969 52.5625C36.4635 52.5312 36.6562 52.5365 36.875 52.5781C37.0938 52.6094 37.2969 52.6354 37.4844 52.6562C37.5156 52.6562 37.5625 52.6562 37.625 52.6562C37.6875 52.6458 37.75 52.6458 37.8125 52.6562C37.875 52.6562 37.9271 52.6719 37.9688 52.7031C38.0104 52.7344 38.0312 52.7812 38.0312 52.8438C38.0208 52.9375 37.9479 53.0104 37.8125 53.0625C37.6875 53.1146 37.5833 53.151 37.5 53.1719C37.375 53.2031 37.2552 53.2188 37.1406 53.2188C37.0365 53.2188 36.9219 53.2344 36.7969 53.2656C36.6823 53.2969 36.5781 53.3385 36.4844 53.3906C36.401 53.4323 36.3125 53.4635 36.2188 53.4844C36.1875 53.5052 36.1562 53.5156 36.125 53.5156C36.0938 53.5052 36.0573 53.5052 36.0156 53.5156C35.9531 53.5365 35.8802 53.5729 35.7969 53.625C35.7135 53.6667 35.6458 53.6927 35.5938 53.7031C35.4062 53.7448 35.2031 53.7344 34.9844 53.6719C34.776 53.6094 34.5625 53.5885 34.3438 53.6094C34.2604 53.6198 34.1771 53.6406 34.0938 53.6719C34.0104 53.6927 33.9271 53.7135 33.8438 53.7344C33.7604 53.7552 33.6771 53.7708 33.5938 53.7812C33.5104 53.7917 33.4375 53.8073 33.375 53.8281L32.9375 53.8594ZM40.5781 53.8594C40.5052 53.849 40.3958 53.875 40.25 53.9375C40.1146 54 39.9896 54.0521 39.875 54.0938C39.7604 54.125 39.6354 54.1615 39.5 54.2031C39.3646 54.2448 39.2344 54.2604 39.1094 54.25C39.026 54.2396 38.9479 54.2135 38.875 54.1719C38.8021 54.1406 38.7344 54.1302 38.6719 54.1406C38.6198 54.1406 38.5729 54.1615 38.5312 54.2031C38.4896 54.2448 38.4375 54.276 38.375 54.2969C38.2604 54.3385 38.125 54.3698 37.9688 54.3906C37.8125 54.4219 37.6615 54.4323 37.5156 54.4219C37.3698 54.4115 37.25 54.3698 37.1562 54.2969C37.0729 54.2344 37.0469 54.1302 37.0781 53.9844C37.099 53.8906 37.1354 53.7969 37.1875 53.7031C37.25 53.599 37.3073 53.4844 37.3594 53.3594C37.4427 53.1406 37.5052 52.9115 37.5469 52.6719C37.5885 52.4219 37.6458 52.224 37.7188 52.0781C37.7604 51.9948 37.8229 51.9167 37.9062 51.8438C37.9896 51.7708 38.0365 51.6927 38.0469 51.6094C38.0573 51.5469 38.0469 51.4948 38.0156 51.4531C37.9844 51.4115 37.9688 51.3542 37.9688 51.2812C37.9688 51.2292 37.9792 51.1771 38 51.125C38.0312 51.0625 38.0521 50.9896 38.0625 50.9062C38.0729 50.8229 38.0729 50.75 38.0625 50.6875C38.0521 50.6146 38.0573 50.5521 38.0781 50.5C38.099 50.4375 38.1302 50.3802 38.1719 50.3281C38.2135 50.2656 38.2552 50.2083 38.2969 50.1562C38.349 50.0938 38.3906 50.026 38.4219 49.9531C38.4531 49.8802 38.4688 49.7969 38.4688 49.7031C38.4688 49.651 38.4844 49.5677 38.5156 49.4531C38.5469 49.3281 38.5573 49.2344 38.5469 49.1719C38.5156 48.9531 38.5156 48.7708 38.5469 48.625C38.5885 48.4792 38.6354 48.349 38.6875 48.2344C38.75 48.1094 38.8125 47.9844 38.875 47.8594C38.9479 47.7344 39 47.5833 39.0312 47.4062C39.0729 47.1875 39.1042 46.9583 39.125 46.7188C39.1458 46.4792 39.1823 46.2656 39.2344 46.0781C39.2969 45.8802 39.3854 45.724 39.5 45.6094C39.625 45.4948 39.8125 45.4531 40.0625 45.4844C40.1667 45.6094 40.2344 45.7292 40.2656 45.8438C40.3073 45.9583 40.3646 46.0885 40.4375 46.2344C40.4688 46.3177 40.5521 46.3906 40.6875 46.4531C40.8229 46.5156 40.9167 46.5833 40.9688 46.6562C41.0208 46.7188 41.0781 46.7865 41.1406 46.8594C41.2135 46.9219 41.2604 46.9896 41.2812 47.0625C41.3125 47.1979 41.3177 47.3542 41.2969 47.5312C41.2865 47.7083 41.276 47.8698 41.2656 48.0156C41.2552 48.099 41.2448 48.1875 41.2344 48.2812C41.224 48.3646 41.2083 48.4375 41.1875 48.5C41.1667 48.5729 41.1406 48.6354 41.1094 48.6875C41.0885 48.7396 41.0729 48.7917 41.0625 48.8438C41.0417 48.9479 41.026 49.0417 41.0156 49.125C41.0156 49.1979 41.0052 49.2708 40.9844 49.3438C40.9323 49.5 40.8542 49.6354 40.75 49.75C40.6562 49.8646 40.5833 50 40.5312 50.1562C40.5 50.2292 40.474 50.3125 40.4531 50.4062C40.4427 50.5 40.4271 50.5885 40.4062 50.6719C40.3438 50.901 40.276 51.1615 40.2031 51.4531C40.1302 51.7448 40.1042 52.026 40.125 52.2969C40.2083 52.276 40.2812 52.2604 40.3438 52.25C40.4062 52.2396 40.4635 52.2344 40.5156 52.2344C40.5677 52.224 40.625 52.224 40.6875 52.2344C40.7604 52.2448 40.849 52.2604 40.9531 52.2812C41.1094 52.3229 41.2812 52.375 41.4688 52.4375C41.6562 52.5 41.849 52.5417 42.0469 52.5625C42.1927 52.5729 42.3385 52.5729 42.4844 52.5625C42.6406 52.5521 42.7917 52.5573 42.9375 52.5781C43.0833 52.599 43.2188 52.625 43.3438 52.6562C43.4792 52.6771 43.6042 52.6771 43.7188 52.6562C43.7708 52.6354 43.8073 52.6198 43.8281 52.6094C43.8594 52.5885 43.8958 52.5729 43.9375 52.5625C44.1042 52.5312 44.2969 52.5365 44.5156 52.5781C44.7344 52.6094 44.9375 52.6354 45.125 52.6562C45.1562 52.6562 45.2031 52.6562 45.2656 52.6562C45.3281 52.6458 45.3906 52.6458 45.4531 52.6562C45.5156 52.6562 45.5677 52.6719 45.6094 52.7031C45.651 52.7344 45.6719 52.7812 45.6719 52.8438C45.6615 52.9375 45.5885 53.0104 45.4531 53.0625C45.3281 53.1146 45.224 53.151 45.1406 53.1719C45.0156 53.2031 44.8958 53.2188 44.7812 53.2188C44.6771 53.2188 44.5625 53.2344 44.4375 53.2656C44.3229 53.2969 44.2188 53.3385 44.125 53.3906C44.0417 53.4323 43.9531 53.4635 43.8594 53.4844C43.8281 53.5052 43.7969 53.5156 43.7656 53.5156C43.7344 53.5052 43.6979 53.5052 43.6562 53.5156C43.5938 53.5365 43.5208 53.5729 43.4375 53.625C43.3542 53.6667 43.2865 53.6927 43.2344 53.7031C43.0469 53.7448 42.8438 53.7344 42.625 53.6719C42.4167 53.6094 42.2031 53.5885 41.9844 53.6094C41.901 53.6198 41.8177 53.6406 41.7344 53.6719C41.651 53.6927 41.5677 53.7135 41.4844 53.7344C41.401 53.7552 41.3177 53.7708 41.2344 53.7812C41.151 53.7917 41.0781 53.8073 41.0156 53.8281L40.5781 53.8594ZM48.0469 46.875C48.2448 46.7396 48.4167 46.5833 48.5625 46.4062C48.7083 46.2292 48.849 46.0521 48.9844 45.875C49.0677 45.8854 49.1406 45.8698 49.2031 45.8281C49.2656 45.7865 49.3333 45.7552 49.4062 45.7344C49.5521 45.6927 49.6979 45.6979 49.8438 45.75C50 45.7917 50.151 45.8073 50.2969 45.7969C50.474 45.776 50.6406 45.7292 50.7969 45.6562C50.9635 45.5833 51.1562 45.5469 51.375 45.5469C51.4479 45.5469 51.5156 45.5729 51.5781 45.625C51.6406 45.6667 51.7031 45.6927 51.7656 45.7031C51.849 45.724 51.9219 45.7135 51.9844 45.6719C52.0573 45.6302 52.1354 45.6094 52.2188 45.6094C52.3646 45.6094 52.474 45.6562 52.5469 45.75C52.6302 45.8438 52.724 45.9375 52.8281 46.0312C52.8802 46.2708 52.8854 46.5052 52.8438 46.7344C52.8021 46.9635 52.7917 47.1979 52.8125 47.4375C52.8333 47.5938 52.8542 47.7448 52.875 47.8906C52.9062 48.0365 52.9219 48.1875 52.9219 48.3438C52.9323 48.4792 52.9219 48.625 52.8906 48.7812C52.8698 48.9271 52.8646 49.0729 52.875 49.2188C52.8854 49.2708 52.901 49.3229 52.9219 49.375C52.9427 49.4271 52.9479 49.4792 52.9375 49.5312C52.9167 49.6458 52.8698 49.7344 52.7969 49.7969C52.724 49.8594 52.6823 49.9427 52.6719 50.0469C52.651 50.2031 52.6823 50.349 52.7656 50.4844C52.8594 50.6198 52.9167 50.7604 52.9375 50.9062C52.9479 50.9688 52.9427 51.0365 52.9219 51.1094C52.901 51.1823 52.8906 51.25 52.8906 51.3125C52.8698 51.5417 52.8698 51.7969 52.8906 52.0781C52.9219 52.3594 52.9427 52.6198 52.9531 52.8594C52.9531 52.9427 52.9583 53.026 52.9688 53.1094C52.9896 53.1927 52.9896 53.2604 52.9688 53.3125C52.9583 53.3646 52.9323 53.4062 52.8906 53.4375C52.8594 53.4688 52.8333 53.5052 52.8125 53.5469C52.8021 53.599 52.8021 53.6719 52.8125 53.7656C52.8333 53.8594 52.8438 53.9479 52.8438 54.0312C52.8438 54.1042 52.8385 54.1719 52.8281 54.2344C52.8177 54.3073 52.8125 54.3698 52.8125 54.4219C52.8229 54.4531 52.8333 54.4844 52.8438 54.5156C52.8646 54.5573 52.8698 54.5938 52.8594 54.625C52.8385 54.7188 52.7656 54.8177 52.6406 54.9219C52.526 55.0365 52.4062 55.0885 52.2812 55.0781C52.2188 55.0677 52.125 55.0156 52 54.9219C51.8854 54.8385 51.8021 54.7708 51.75 54.7188C51.6562 54.6042 51.599 54.4583 51.5781 54.2812C51.5573 54.1042 51.5104 53.9427 51.4375 53.7969C51.4062 53.7448 51.3594 53.6979 51.2969 53.6562C51.2448 53.6042 51.1979 53.5469 51.1562 53.4844C51.0938 53.3698 51.0521 53.2552 51.0312 53.1406C51.0104 53.0156 50.9948 52.8958 50.9844 52.7812C50.9844 52.6562 50.9792 52.5365 50.9688 52.4219C50.9583 52.2969 50.9323 52.1719 50.8906 52.0469C50.8698 52.0052 50.8385 51.9688 50.7969 51.9375C50.7552 51.9062 50.7188 51.8646 50.6875 51.8125C50.625 51.7083 50.5833 51.6198 50.5625 51.5469C50.5417 51.474 50.474 51.4167 50.3594 51.375C49.9948 51.375 49.625 51.3646 49.25 51.3438C48.8854 51.3229 48.526 51.3333 48.1719 51.375C48.0885 51.3854 48.0156 51.4062 47.9531 51.4375C47.8906 51.4583 47.8177 51.474 47.7344 51.4844C47.6927 51.4844 47.651 51.4792 47.6094 51.4688C47.5677 51.4583 47.5312 51.4531 47.5 51.4531C47.3542 51.474 47.2135 51.5417 47.0781 51.6562C46.9427 51.7604 46.8385 51.8646 46.7656 51.9688C46.724 52.0312 46.6979 52.1094 46.6875 52.2031C46.6875 52.2865 46.6719 52.3698 46.6406 52.4531C46.6094 52.5365 46.5573 52.6146 46.4844 52.6875C46.4115 52.75 46.3854 52.8333 46.4062 52.9375C46.2917 53.0208 46.1927 53.125 46.1094 53.25C46.0365 53.375 45.9635 53.5052 45.8906 53.6406C45.8177 53.7656 45.7344 53.8854 45.6406 54C45.5573 54.1146 45.4531 54.1979 45.3281 54.25C45.276 54.2708 45.224 54.2969 45.1719 54.3281C45.1302 54.3594 45.0833 54.375 45.0312 54.375C44.9792 54.3646 44.9479 54.349 44.9375 54.3281C44.9375 54.3073 44.9062 54.276 44.8438 54.2344C44.7812 54.1927 44.7083 54.1458 44.625 54.0938C44.5312 54.0417 44.4427 53.9844 44.3594 53.9219C44.276 53.8594 44.2031 53.7969 44.1406 53.7344C44.0677 53.6615 44.0156 53.5938 43.9844 53.5312C43.901 53.3542 43.8854 53.2292 43.9375 53.1562C43.9896 53.0729 44.0573 52.974 44.1406 52.8594C44.2552 52.6927 44.3854 52.5052 44.5312 52.2969C44.6771 52.0885 44.8073 51.8906 44.9219 51.7031C44.9844 51.599 45.0365 51.5 45.0781 51.4062C45.1302 51.3125 45.1927 51.224 45.2656 51.1406C45.349 51.026 45.4531 50.9323 45.5781 50.8594C45.7135 50.7865 45.8073 50.6927 45.8594 50.5781C45.8802 50.526 45.8906 50.474 45.8906 50.4219C45.8906 50.3594 45.901 50.2969 45.9219 50.2344C46.0052 50.026 46.1354 49.8385 46.3125 49.6719C46.4896 49.5052 46.625 49.3177 46.7188 49.1094C46.7396 49.0573 46.75 49.0104 46.75 48.9688C46.7604 48.9167 46.776 48.8646 46.7969 48.8125C46.9635 48.4271 47.1667 48.0833 47.4062 47.7812C47.6562 47.4792 47.8698 47.1771 48.0469 46.875ZM50.2344 46.8281C50.1094 46.9219 50 47.0312 49.9062 47.1562C49.8229 47.2708 49.7083 47.3594 49.5625 47.4219C49.5208 47.5156 49.4688 47.6042 49.4062 47.6875C49.3542 47.7708 49.2812 47.8385 49.1875 47.8906C49.1562 48.0573 49.0938 48.2031 49 48.3281C48.9062 48.4427 48.8177 48.5573 48.7344 48.6719C48.6927 48.7135 48.6562 48.7604 48.625 48.8125C48.5938 48.8542 48.5573 48.901 48.5156 48.9531C48.4635 49.0052 48.4115 49.0469 48.3594 49.0781C48.3073 49.099 48.2604 49.1302 48.2188 49.1719C48.1562 49.2552 48.0885 49.3698 48.0156 49.5156C47.9427 49.6615 47.875 49.7812 47.8125 49.875C47.7604 49.9271 47.7083 49.9792 47.6562 50.0312C47.6042 50.0833 47.5885 50.151 47.6094 50.2344C47.6406 50.3177 47.7031 50.375 47.7969 50.4062C47.8906 50.4271 47.9948 50.4427 48.1094 50.4531C48.2344 50.4531 48.3542 50.4479 48.4688 50.4375C48.5833 50.4271 48.6771 50.4219 48.75 50.4219C48.8958 50.4219 49.0417 50.4271 49.1875 50.4375C49.3438 50.4375 49.4896 50.4323 49.625 50.4219C49.7708 50.4115 49.8958 50.3854 50 50.3438C50.1146 50.3021 50.2031 50.2396 50.2656 50.1562C50.3698 49.8229 50.3958 49.4896 50.3438 49.1562C50.2917 48.8125 50.2448 48.474 50.2031 48.1406C50.1823 48.0469 50.1667 47.9427 50.1562 47.8281C50.1458 47.7135 50.1458 47.6094 50.1562 47.5156C50.1667 47.4115 50.1979 47.3125 50.25 47.2188C50.3125 47.1146 50.3229 46.9948 50.2812 46.8594L50.2344 46.8281ZM61.25 50.0625C61.25 50.1042 61.2656 50.1354 61.2969 50.1562C61.3385 50.1667 61.3802 50.1823 61.4219 50.2031C61.4635 50.2135 61.5 50.2344 61.5312 50.2656C61.5729 50.2865 61.5885 50.3177 61.5781 50.3594C61.724 50.5052 61.8542 50.6146 61.9688 50.6875C62.0938 50.75 62.2292 50.8646 62.375 51.0312C62.3958 51.0521 62.4167 51.1146 62.4375 51.2188C62.4583 51.3125 62.4792 51.3698 62.5 51.3906C62.6458 51.599 62.6875 51.8177 62.625 52.0469C62.5625 52.2656 62.4479 52.4792 62.2812 52.6875C62.125 52.8854 61.9375 53.0677 61.7188 53.2344C61.5 53.3906 61.3073 53.5052 61.1406 53.5781C60.9844 53.6615 60.8281 53.7188 60.6719 53.75C60.526 53.7812 60.349 53.8177 60.1406 53.8594C60.0885 53.8698 60.0417 53.8854 60 53.9062C59.9583 53.9271 59.9115 53.9479 59.8594 53.9688C59.526 54.0417 59.1979 54.0625 58.875 54.0312C58.5521 54.0104 58.2135 54.0104 57.8594 54.0312C57.7448 54.0417 57.6354 54.0573 57.5312 54.0781C57.4375 54.099 57.3281 54.0885 57.2031 54.0469C57.151 54.0365 57.099 54.0156 57.0469 53.9844C56.9948 53.9427 56.9427 53.9167 56.8906 53.9062C56.8177 53.8854 56.7396 53.8906 56.6562 53.9219C56.5729 53.9427 56.4896 53.9583 56.4062 53.9688C56.2917 53.9896 56.1719 53.9948 56.0469 53.9844C55.9219 53.9635 55.7917 53.9635 55.6562 53.9844C55.5833 53.9948 55.5156 54.0104 55.4531 54.0312C55.3906 54.0625 55.3229 54.0833 55.25 54.0938C55.0417 54.125 54.8281 54.1406 54.6094 54.1406C54.401 54.151 54.2188 54.151 54.0625 54.1406C54 54.1406 53.9427 54.1302 53.8906 54.1094C53.8385 54.0885 53.7865 54.0781 53.7344 54.0781C53.6927 54.0781 53.625 54.0833 53.5312 54.0938C53.4375 54.1146 53.3438 54.125 53.25 54.125C53.1562 54.1354 53.0781 54.1302 53.0156 54.1094C52.9427 54.0885 52.9062 54.0417 52.9062 53.9688C52.9062 53.9271 52.9375 53.8854 53 53.8438C53.0521 53.8021 53.1146 53.7656 53.1875 53.7344C53.2604 53.6927 53.3333 53.6562 53.4062 53.625C53.4792 53.5833 53.5365 53.5469 53.5781 53.5156C53.6406 53.4635 53.724 53.3906 53.8281 53.2969C53.9219 53.2031 54.0156 53.1042 54.1094 53C54.2031 52.8854 54.2865 52.776 54.3594 52.6719C54.4323 52.5573 54.4792 52.4583 54.5 52.375C54.5104 52.3229 54.5104 52.276 54.5 52.2344C54.4896 52.1927 54.4896 52.151 54.5 52.1094C54.5208 51.9844 54.5677 51.8333 54.6406 51.6562C54.724 51.4688 54.7917 51.3125 54.8438 51.1875C54.8646 51.1146 54.8802 51.0365 54.8906 50.9531C54.901 50.8698 54.9167 50.7969 54.9375 50.7344C54.9896 50.6198 55.0469 50.5208 55.1094 50.4375C55.1719 50.3438 55.2292 50.25 55.2812 50.1562C55.3438 50.0625 55.3854 49.9635 55.4062 49.8594C55.4375 49.7448 55.4479 49.6042 55.4375 49.4375C55.4271 49.3854 55.4115 49.3333 55.3906 49.2812C55.3698 49.2292 55.3542 49.1719 55.3438 49.1094C55.3438 48.9219 55.3958 48.75 55.5 48.5938C55.6146 48.4375 55.6875 48.2656 55.7188 48.0781C55.7188 48.026 55.7083 47.9844 55.6875 47.9531C55.6667 47.9115 55.6562 47.8646 55.6562 47.8125C55.6562 47.6875 55.6719 47.5677 55.7031 47.4531C55.7448 47.3281 55.776 47.2083 55.7969 47.0938C55.8177 46.9271 55.7917 46.7604 55.7188 46.5938C55.6562 46.4271 55.5833 46.2812 55.5 46.1562C55.4688 46.1146 55.4271 46.0729 55.375 46.0312C55.3333 45.9896 55.2917 45.9479 55.25 45.9062C55.2083 45.8542 55.1719 45.7969 55.1406 45.7344C55.1198 45.6719 55.1198 45.5885 55.1406 45.4844C55.3281 45.4531 55.4896 45.4583 55.625 45.5C55.7708 45.5312 55.8958 45.5833 56 45.6562C56.2292 45.625 56.4635 45.6302 56.7031 45.6719C56.9531 45.7135 57.1667 45.776 57.3438 45.8594C57.4896 45.8385 57.6302 45.8333 57.7656 45.8438C57.9115 45.8542 58.0573 45.8698 58.2031 45.8906C58.2552 45.8906 58.3021 45.901 58.3438 45.9219C58.3958 45.9427 58.4479 45.9531 58.5 45.9531C58.6146 45.9531 58.7292 45.9323 58.8438 45.8906C58.9583 45.8385 59.0729 45.8021 59.1875 45.7812C59.2708 45.7604 59.349 45.7656 59.4219 45.7969C59.4948 45.8177 59.5677 45.8281 59.6406 45.8281C59.7344 45.8177 59.8125 45.7969 59.875 45.7656C59.9375 45.7344 59.9948 45.7188 60.0469 45.7188C60.276 45.6771 60.5052 45.6719 60.7344 45.7031C60.974 45.724 61.1823 45.7708 61.3594 45.8438C61.4115 45.8646 61.4948 45.8698 61.6094 45.8594C61.724 45.8385 61.8125 45.849 61.875 45.8906C61.9896 45.9635 62.1198 46.026 62.2656 46.0781C62.4219 46.1302 62.5469 46.1979 62.6406 46.2812C62.7135 46.3438 62.776 46.4167 62.8281 46.5C62.8906 46.5729 62.974 46.6302 63.0781 46.6719C63.1406 46.6927 63.1771 46.7344 63.1875 46.7969C63.2083 46.8594 63.25 46.9115 63.3125 46.9531C63.4479 47.0365 63.5521 47.1823 63.625 47.3906C63.7083 47.599 63.7448 47.7917 63.7344 47.9688C63.7135 48.0833 63.6667 48.1875 63.5938 48.2812C63.5312 48.3646 63.4688 48.4531 63.4062 48.5469C63.375 48.599 63.3438 48.6615 63.3125 48.7344C63.2812 48.8073 63.2448 48.8646 63.2031 48.9062C63.1615 48.9375 63.1042 48.9688 63.0312 49C62.9688 49.0312 62.9062 49.0677 62.8438 49.1094C62.7604 49.1615 62.6875 49.224 62.625 49.2969C62.5625 49.3698 62.4948 49.4167 62.4219 49.4375C62.349 49.4688 62.276 49.5104 62.2031 49.5625C62.1406 49.6042 62.0781 49.6354 62.0156 49.6562C61.849 49.7083 61.6979 49.7604 61.5625 49.8125C61.4375 49.8646 61.3333 49.9479 61.25 50.0625ZM59.7188 49.375C59.7917 49.2917 59.875 49.25 59.9688 49.25C60.0625 49.2396 60.1615 49.2083 60.2656 49.1562C60.3281 49.125 60.3906 49.0781 60.4531 49.0156C60.526 48.9531 60.599 48.8802 60.6719 48.7969C60.7448 48.7135 60.8073 48.6302 60.8594 48.5469C60.9115 48.4531 60.9531 48.375 60.9844 48.3125C61.0677 48.1562 61.0833 47.9948 61.0312 47.8281C60.9792 47.651 60.9167 47.5052 60.8438 47.3906C60.8229 47.349 60.776 47.2865 60.7031 47.2031C60.6302 47.1094 60.5677 47.0521 60.5156 47.0312C60.4844 47.0208 60.4427 47.0208 60.3906 47.0312C60.349 47.0417 60.3073 47.0417 60.2656 47.0312C60.1302 47.0104 59.974 46.9896 59.7969 46.9688C59.6302 46.9479 59.4688 46.9271 59.3125 46.9062C58.9479 46.875 58.6927 46.9375 58.5469 47.0938C58.4115 47.2396 58.2917 47.474 58.1875 47.7969C58.1042 48.0469 58.026 48.2969 57.9531 48.5469C57.8906 48.7865 57.8281 49.0417 57.7656 49.3125C57.8906 49.4062 58.026 49.4635 58.1719 49.4844C58.3281 49.4948 58.4896 49.4896 58.6562 49.4688C58.8229 49.4375 58.9948 49.4115 59.1719 49.3906C59.349 49.3594 59.5312 49.3542 59.7188 49.375ZM57.5312 53.0781C57.7604 53.0781 57.9583 53.0208 58.125 52.9062C58.2917 52.7812 58.4635 52.6927 58.6406 52.6406C58.7552 52.6094 58.8698 52.5938 58.9844 52.5938C59.099 52.5938 59.1979 52.5729 59.2812 52.5312C59.3333 52.5104 59.3906 52.4635 59.4531 52.3906C59.526 52.3073 59.5677 52.2552 59.5781 52.2344C59.6094 52.1823 59.6458 52.0677 59.6875 51.8906C59.7396 51.7135 59.776 51.5521 59.7969 51.4062C59.8385 51.0938 59.7812 50.8958 59.625 50.8125C59.4792 50.7292 59.276 50.6771 59.0156 50.6562C58.7344 50.625 58.4635 50.6146 58.2031 50.625C57.9531 50.625 57.7083 50.6615 57.4688 50.7344C57.4271 50.8177 57.3802 50.9062 57.3281 51C57.276 51.0833 57.224 51.1719 57.1719 51.2656C57.1198 51.349 57.0625 51.4375 57 51.5312C56.9375 51.6146 56.8854 51.7031 56.8438 51.7969C56.7917 51.9115 56.7656 52.0365 56.7656 52.1719C56.776 52.3073 56.7552 52.4479 56.7031 52.5938C56.7344 52.6562 56.7604 52.7188 56.7812 52.7812C56.8021 52.8438 56.8385 52.901 56.8906 52.9531C57.0052 52.9323 57.1094 52.9479 57.2031 53C57.2969 53.0521 57.4062 53.0781 57.5312 53.0781ZM72.2031 47.1875C72.3073 47.3958 72.3854 47.5885 72.4375 47.7656C72.4896 47.9427 72.5312 48.1823 72.5625 48.4844C72.5833 48.6927 72.6042 48.8802 72.625 49.0469C72.6562 49.2031 72.6615 49.401 72.6406 49.6406C72.6302 49.8073 72.6042 49.9844 72.5625 50.1719C72.5208 50.349 72.4688 50.5156 72.4062 50.6719C72.3125 50.9531 72.224 51.1979 72.1406 51.4062C72.0573 51.6146 71.9583 51.8385 71.8438 52.0781C71.7708 52.2135 71.6979 52.3229 71.625 52.4062C71.5521 52.4896 71.474 52.5781 71.3906 52.6719C71.3698 52.7031 71.349 52.7396 71.3281 52.7812C71.3177 52.8229 71.2969 52.8594 71.2656 52.8906C71.1302 53.0469 70.9427 53.2083 70.7031 53.375C70.474 53.5417 70.2604 53.6615 70.0625 53.7344C69.9896 53.7552 69.9115 53.7708 69.8281 53.7812C69.7552 53.7812 69.6771 53.7917 69.5938 53.8125C69.4896 53.8542 69.401 53.9167 69.3281 54C69.2552 54.0729 69.1615 54.125 69.0469 54.1562C68.9844 54.1771 68.9062 54.1927 68.8125 54.2031C68.7292 54.224 68.6458 54.2448 68.5625 54.2656C68.3542 54.3177 68.0938 54.3698 67.7812 54.4219C67.4792 54.474 67.1979 54.4688 66.9375 54.4062C66.8958 54.3958 66.8542 54.375 66.8125 54.3438C66.7708 54.3125 66.724 54.2865 66.6719 54.2656C66.6198 54.2448 66.5677 54.2292 66.5156 54.2188C66.4635 54.2083 66.4167 54.1927 66.375 54.1719C66.2396 54.1198 66.1094 54.0469 65.9844 53.9531C65.8594 53.8594 65.7292 53.7865 65.5938 53.7344C65.4479 53.651 65.3021 53.5781 65.1562 53.5156C65.0104 53.4427 64.9115 53.3177 64.8594 53.1406C64.6823 53.0885 64.5573 52.9688 64.4844 52.7812C64.4115 52.5938 64.3229 52.4271 64.2188 52.2812C64.1875 52.2292 64.1406 52.1875 64.0781 52.1562C64.026 52.1146 63.9896 52.0677 63.9688 52.0156C63.8958 51.901 63.8385 51.7188 63.7969 51.4688C63.7552 51.2083 63.7292 50.9896 63.7188 50.8125C63.7083 50.625 63.7188 50.4479 63.75 50.2812C63.7917 50.1042 63.8333 49.9323 63.875 49.7656C63.9271 49.599 63.9792 49.4375 64.0312 49.2812C64.0938 49.125 64.1458 48.974 64.1875 48.8281C64.2292 48.651 64.3073 48.5104 64.4219 48.4062C64.5365 48.3021 64.6458 48.1875 64.75 48.0625C64.7917 48.0208 64.8229 47.974 64.8438 47.9219C64.8646 47.8698 64.8958 47.8177 64.9375 47.7656C65.0208 47.6615 65.1146 47.5729 65.2188 47.5C65.3229 47.4167 65.4219 47.3333 65.5156 47.25C65.6198 47.1667 65.7292 47.0885 65.8438 47.0156C65.9583 46.9323 66.0521 46.849 66.125 46.7656C66.2083 46.651 66.2708 46.5365 66.3125 46.4219C66.3646 46.3073 66.4427 46.2083 66.5469 46.125C66.6615 46.0312 66.7865 45.9635 66.9219 45.9219C67.0677 45.8802 67.2344 45.8333 67.4219 45.7812C67.599 45.7396 67.7708 45.6823 67.9375 45.6094C68.1146 45.526 68.3021 45.474 68.5 45.4531C68.6875 45.4323 68.8906 45.4219 69.1094 45.4219C69.3281 45.4115 69.5417 45.4167 69.75 45.4375C69.9688 45.4583 70.1719 45.4948 70.3594 45.5469C70.5573 45.599 70.7292 45.6719 70.875 45.7656C70.9479 45.8073 71.0208 45.8698 71.0938 45.9531C71.1771 46.0365 71.2552 46.1146 71.3281 46.1875C71.4948 46.3542 71.6354 46.526 71.75 46.7031C71.875 46.8698 72.026 47.0312 72.2031 47.1875ZM68.7969 46.4844C68.7552 46.4844 68.6927 46.5 68.6094 46.5312C68.5365 46.5625 68.4583 46.599 68.375 46.6406C68.3021 46.6719 68.2344 46.7083 68.1719 46.75C68.1094 46.7917 68.0625 46.8229 68.0312 46.8438C67.9062 46.9583 67.7917 47.1042 67.6875 47.2812C67.5938 47.4479 67.4844 47.599 67.3594 47.7344C67.3073 47.7865 67.25 47.8281 67.1875 47.8594C67.1354 47.8802 67.0938 47.9115 67.0625 47.9531C66.8854 48.151 66.7552 48.3802 66.6719 48.6406C66.599 48.901 66.5208 49.151 66.4375 49.3906C66.3438 49.6406 66.2552 49.9219 66.1719 50.2344C66.0885 50.5469 66.0625 50.8438 66.0938 51.125C66.1042 51.1875 66.125 51.2708 66.1562 51.375C66.1979 51.4688 66.2344 51.5573 66.2656 51.6406C66.3073 51.7344 66.3438 51.8281 66.375 51.9219C66.4167 52.0052 66.4583 52.0833 66.5 52.1562C66.5625 52.2812 66.6406 52.4167 66.7344 52.5625C66.8385 52.6979 66.9531 52.8177 67.0781 52.9219C67.2135 53.0156 67.3594 53.0885 67.5156 53.1406C67.6823 53.1823 67.8594 53.1771 68.0469 53.125C68.1615 53.0833 68.3021 53.0208 68.4688 52.9375C68.6354 52.8438 68.7865 52.7552 68.9219 52.6719C69.1198 52.5469 69.2604 52.4219 69.3438 52.2969C69.4271 52.1615 69.5104 51.9896 69.5938 51.7812C69.6146 51.7292 69.6406 51.6823 69.6719 51.6406C69.7135 51.5885 69.75 51.5365 69.7812 51.4844C69.8438 51.3698 69.8958 51.2448 69.9375 51.1094C69.9792 50.974 70.0312 50.8438 70.0938 50.7188C70.2188 50.4375 70.2969 50.1667 70.3281 49.9062C70.3594 49.6458 70.3854 49.3333 70.4062 48.9688C70.4167 48.7708 70.401 48.625 70.3594 48.5312C70.3281 48.4375 70.3021 48.3073 70.2812 48.1406C70.2708 48.026 70.2656 47.9219 70.2656 47.8281C70.2656 47.724 70.2448 47.6354 70.2031 47.5625C70.151 47.4688 70.0521 47.4062 69.9062 47.375C69.7708 47.3438 69.6615 47.2865 69.5781 47.2031C69.4948 47.0677 69.4062 46.9375 69.3125 46.8125C69.2188 46.6875 69.1042 46.5833 68.9688 46.5C68.9167 46.5104 68.8802 46.5104 68.8594 46.5C68.8385 46.4896 68.8177 46.4844 68.7969 46.4844ZM79.5938 45.8438C79.6771 45.8646 79.7604 45.875 79.8438 45.875C79.9271 45.875 80.0104 45.8854 80.0938 45.9062C80.125 45.9062 80.1562 45.9167 80.1875 45.9375C80.2188 45.9583 80.25 45.974 80.2812 45.9844C80.3125 45.9948 80.3438 45.9948 80.375 45.9844C80.4062 45.974 80.4375 45.974 80.4688 45.9844C80.7083 46.0469 80.901 46.1458 81.0469 46.2812C81.1927 46.4062 81.3385 46.5625 81.4844 46.75C81.5469 46.8542 81.625 46.9792 81.7188 47.125C81.8125 47.2604 81.8906 47.4167 81.9531 47.5938C82.0156 47.7604 82.0521 47.9375 82.0625 48.125C82.0729 48.3125 82.0365 48.5 81.9531 48.6875C81.9323 48.7396 81.901 48.8073 81.8594 48.8906C81.8177 48.9635 81.776 49.0417 81.7344 49.125C81.6719 49.2396 81.5938 49.3594 81.5 49.4844C81.4062 49.6094 81.3073 49.6979 81.2031 49.75C81.1198 49.8021 81.0469 49.849 80.9844 49.8906C80.9323 49.9323 80.8646 49.974 80.7812 50.0156C80.6354 50.0677 80.4896 50.1458 80.3438 50.25C80.2083 50.3438 80.0677 50.4219 79.9219 50.4844C79.8698 50.5052 79.8125 50.5208 79.75 50.5312C79.6979 50.5312 79.6458 50.5417 79.5938 50.5625C79.5208 50.6042 79.4635 50.6615 79.4219 50.7344C79.3802 50.8073 79.3021 50.8594 79.1875 50.8906C79.4479 50.9531 79.6875 51.099 79.9062 51.3281C80.125 51.5469 80.2917 51.776 80.4062 52.0156C80.4583 52.1615 80.5312 52.2917 80.625 52.4062C80.7188 52.5208 80.7604 52.651 80.75 52.7969C80.8229 52.8594 80.8802 52.9427 80.9219 53.0469C80.974 53.1406 81.0156 53.2448 81.0469 53.3594C81.0781 53.474 81.1042 53.5938 81.125 53.7188C81.1562 53.8333 81.1927 53.9375 81.2344 54.0312C81.2969 54.1667 81.3646 54.276 81.4375 54.3594C81.5104 54.4531 81.5885 54.5365 81.6719 54.6094C81.7552 54.6927 81.8385 54.776 81.9219 54.8594C82.0052 54.9531 82.0781 55.0677 82.1406 55.2031C82.1823 55.1927 82.2135 55.1771 82.2344 55.1562C82.2656 55.1458 82.3073 55.1458 82.3594 55.1562C82.5156 55.2708 82.6875 55.3594 82.875 55.4219C83.0729 55.4844 83.3125 55.5365 83.5938 55.5781C83.8333 55.6198 84.0573 55.6302 84.2656 55.6094C84.4844 55.599 84.7083 55.5729 84.9375 55.5312C85.0104 55.5208 85.099 55.4896 85.2031 55.4375C85.3177 55.3958 85.4271 55.3594 85.5312 55.3281C85.6458 55.2969 85.7448 55.2812 85.8281 55.2812C85.9115 55.2917 85.9531 55.349 85.9531 55.4531C85.9531 55.526 85.9062 55.6146 85.8125 55.7188C85.7188 55.8229 85.6354 55.901 85.5625 55.9531C85.3854 56.0781 85.1823 56.1771 84.9531 56.25C84.724 56.3229 84.4844 56.3802 84.2344 56.4219C83.9844 56.474 83.7292 56.5104 83.4688 56.5312C83.2083 56.5521 82.9635 56.5677 82.7344 56.5781C82.5885 56.5781 82.4531 56.5521 82.3281 56.5C82.2135 56.4583 82.1094 56.4271 82.0156 56.4062C81.8073 56.375 81.6198 56.3385 81.4531 56.2969C81.2969 56.2552 81.1458 56.1927 81 56.1094C80.875 56.0365 80.7656 55.9323 80.6719 55.7969C80.5781 55.6719 80.4479 55.5938 80.2812 55.5625C80.0104 55.3229 79.7396 55.0781 79.4688 54.8281C79.1979 54.5885 78.9844 54.2865 78.8281 53.9219C78.776 53.8281 78.7188 53.7396 78.6562 53.6562C78.5938 53.5625 78.5469 53.4635 78.5156 53.3594C78.4844 53.2865 78.4635 53.2083 78.4531 53.125C78.4531 53.0417 78.4427 52.9479 78.4219 52.8438C78.401 52.7292 78.3698 52.6094 78.3281 52.4844C78.2865 52.349 78.2448 52.224 78.2031 52.1094C78.1927 52.0781 78.1771 52.0469 78.1562 52.0156C78.1354 51.9844 78.1198 51.9531 78.1094 51.9219C78.0885 51.8594 78.0677 51.7865 78.0469 51.7031C78.026 51.6094 77.9896 51.5365 77.9375 51.4844C77.8854 51.4427 77.7969 51.3958 77.6719 51.3438C77.5573 51.2917 77.4583 51.2552 77.375 51.2344C77.2604 51.2135 77.1458 51.2188 77.0312 51.25C76.9271 51.2812 76.8281 51.3021 76.7344 51.3125C76.599 51.3333 76.4688 51.3385 76.3438 51.3281C76.2188 51.3073 76.1146 51.3125 76.0312 51.3438C75.8854 51.3958 75.7656 51.5312 75.6719 51.75C75.5781 51.9688 75.5208 52.1979 75.5 52.4375C75.4583 52.6771 75.3958 52.9115 75.3125 53.1406C75.2292 53.3594 75.1615 53.5729 75.1094 53.7812C75.0677 53.9167 75 54.026 74.9062 54.1094C74.8125 54.2031 74.6823 54.2396 74.5156 54.2188C74.4323 54.2083 74.3646 54.1979 74.3125 54.1875C74.2708 54.1875 74.2135 54.1667 74.1406 54.125C74.0885 54.1458 73.9948 54.1927 73.8594 54.2656C73.7344 54.349 73.6458 54.4062 73.5938 54.4375C73.25 54.5417 73.0521 54.5156 73 54.3594C72.9583 54.2031 72.9792 53.9531 73.0625 53.6094C73.1146 53.3906 73.1927 53.1771 73.2969 52.9688C73.4115 52.7604 73.4896 52.5833 73.5312 52.4375C73.5521 52.3438 73.5573 52.2604 73.5469 52.1875C73.5469 52.1042 73.5417 52.026 73.5312 51.9531C73.5208 51.8802 73.5156 51.8177 73.5156 51.7656C73.5156 51.7031 73.5365 51.6458 73.5781 51.5938C73.5885 51.4792 73.6198 51.3906 73.6719 51.3281C73.724 51.2552 73.7604 51.1615 73.7812 51.0469C73.8021 50.9427 73.8281 50.8333 73.8594 50.7188C73.8906 50.6042 73.9115 50.4948 73.9219 50.3906C73.9323 50.2656 73.9375 50.151 73.9375 50.0469C73.9479 49.9323 73.9844 49.8021 74.0469 49.6562C74.099 49.5208 74.151 49.3854 74.2031 49.25C74.2656 49.1042 74.3073 48.9635 74.3281 48.8281C74.349 48.724 74.3594 48.6198 74.3594 48.5156C74.3698 48.401 74.3958 48.2917 74.4375 48.1875C74.4583 48.1042 74.5 48.0365 74.5625 47.9844C74.6354 47.9323 74.6823 47.8646 74.7031 47.7812C74.7135 47.7188 74.7083 47.6615 74.6875 47.6094C74.6667 47.5573 74.6667 47.5052 74.6875 47.4531C74.75 47.2448 74.7708 47.0833 74.75 46.9688C74.7292 46.8438 74.6927 46.7448 74.6406 46.6719C74.599 46.5885 74.5573 46.5104 74.5156 46.4375C74.4844 46.3646 74.4844 46.2656 74.5156 46.1406C74.5677 46.1302 74.6146 46.0885 74.6562 46.0156C74.6979 45.9323 74.7552 45.8802 74.8281 45.8594C74.8698 45.849 74.9479 45.8438 75.0625 45.8438C75.1771 45.8333 75.3021 45.8281 75.4375 45.8281C75.5729 45.8177 75.7031 45.8177 75.8281 45.8281C75.9531 45.8281 76.0521 45.8281 76.125 45.8281C76.2083 45.8385 76.3125 45.8385 76.4375 45.8281C76.5625 45.8073 76.6927 45.7969 76.8281 45.7969C76.9635 45.7865 77.0885 45.7812 77.2031 45.7812C77.3281 45.7812 77.4323 45.8021 77.5156 45.8438H79.5938ZM77.2188 49.8281C77.3021 49.8281 77.3802 49.8073 77.4531 49.7656C77.5365 49.724 77.6146 49.7135 77.6875 49.7344C77.7917 49.7552 77.8958 49.7708 78 49.7812C78.1042 49.7917 78.2188 49.8073 78.3438 49.8281C78.3958 49.8385 78.4479 49.8333 78.5 49.8125C78.5521 49.7917 78.6198 49.7865 78.7031 49.7969C78.8698 49.6719 79.0156 49.5781 79.1406 49.5156C79.276 49.4531 79.401 49.3281 79.5156 49.1406C79.5677 49.0469 79.625 48.9583 79.6875 48.875C79.75 48.7812 79.7917 48.7031 79.8125 48.6406C79.8854 48.401 79.875 48.1979 79.7812 48.0312C79.6875 47.8542 79.599 47.6979 79.5156 47.5625C79.4115 47.4062 79.3125 47.2969 79.2188 47.2344C79.125 47.1615 78.9688 47.1354 78.75 47.1562C78.5729 47.1667 78.3906 47.1667 78.2031 47.1562C78.0156 47.1354 77.8333 47.1302 77.6562 47.1406C77.4896 47.151 77.3385 47.1823 77.2031 47.2344C77.0677 47.2865 76.9688 47.3802 76.9062 47.5156C76.8542 47.6719 76.7917 47.8438 76.7188 48.0312C76.6458 48.2188 76.5781 48.4115 76.5156 48.6094C76.4531 48.7969 76.401 48.9896 76.3594 49.1875C76.3177 49.3854 76.2969 49.5781 76.2969 49.7656C76.4531 49.7448 76.6094 49.7552 76.7656 49.7969C76.9219 49.8281 77.0729 49.8385 77.2188 49.8281ZM88.8438 48.3125C88.9583 48.3958 89.0365 48.5 89.0781 48.625C89.1198 48.7396 89.1927 48.8438 89.2969 48.9375C89.3802 49.0208 89.4323 49.0833 89.4531 49.125C89.474 49.1667 89.5104 49.2396 89.5625 49.3438C89.6458 49.4896 89.724 49.6667 89.7969 49.875C89.8698 50.0729 89.9115 50.25 89.9219 50.4062C89.9635 51 89.9271 51.5052 89.8125 51.9219C89.6979 52.3281 89.4896 52.7031 89.1875 53.0469C89.0625 53.1094 88.9479 53.1927 88.8438 53.2969C88.7396 53.3906 88.6302 53.4948 88.5156 53.6094C88.4115 53.7135 88.2917 53.8125 88.1562 53.9062C88.0312 54 87.875 54.0729 87.6875 54.125C87.4792 54.1771 87.2604 54.2135 87.0312 54.2344C86.8021 54.2552 86.5677 54.276 86.3281 54.2969C86.0156 54.3177 85.6979 54.3438 85.375 54.375C85.0625 54.4062 84.7708 54.3802 84.5 54.2969C84.4479 54.276 84.401 54.2448 84.3594 54.2031C84.3281 54.1615 84.2865 54.1302 84.2344 54.1094C84.2031 54.0885 84.1615 54.0833 84.1094 54.0938C84.0573 54.1042 84.0156 54.1042 83.9844 54.0938C83.9323 54.0729 83.8906 54.0573 83.8594 54.0469C83.8385 54.0365 83.8073 54.0312 83.7656 54.0312C83.6094 53.9167 83.4375 53.7865 83.25 53.6406C83.0729 53.4948 82.9479 53.3073 82.875 53.0781C82.8542 52.9948 82.8333 52.9062 82.8125 52.8125C82.8021 52.7083 82.7812 52.6094 82.75 52.5156C82.7188 52.4219 82.6875 52.3229 82.6562 52.2188C82.625 52.1042 82.6042 51.9948 82.5938 51.8906C82.5938 51.776 82.6042 51.6719 82.625 51.5781C82.6562 51.474 82.7188 51.3802 82.8125 51.2969C82.7917 51.2135 82.7708 51.1354 82.75 51.0625C82.7292 50.9792 82.7031 50.9062 82.6719 50.8438C82.6927 50.6354 82.7448 50.4427 82.8281 50.2656C82.9219 50.0885 83.0156 49.9271 83.1094 49.7812C83.2344 49.5833 83.349 49.4167 83.4531 49.2812C83.5573 49.1458 83.6979 48.9844 83.875 48.7969C84 48.6823 84.1146 48.5625 84.2188 48.4375C84.3333 48.3021 84.4479 48.1875 84.5625 48.0938C84.7396 47.9688 84.9062 47.8698 85.0625 47.7969C85.2188 47.7135 85.3594 47.5781 85.4844 47.3906C85.3698 47.2448 85.2708 47.099 85.1875 46.9531C85.1042 46.8073 85.0312 46.6615 84.9688 46.5156C84.9062 46.3698 84.8438 46.224 84.7812 46.0781C84.7188 45.9219 84.651 45.7708 84.5781 45.625C84.6198 45.4896 84.6198 45.3698 84.5781 45.2656C84.5365 45.1615 84.526 45.0469 84.5469 44.9219C84.5573 44.849 84.5885 44.7812 84.6406 44.7188C84.6927 44.6458 84.7396 44.5677 84.7812 44.4844C84.8333 44.349 84.875 44.2135 84.9062 44.0781C84.9479 43.9427 85.0156 43.8125 85.1094 43.6875C85.2865 43.4375 85.5 43.2135 85.75 43.0156C86.0104 42.8073 86.2969 42.6458 86.6094 42.5312C86.724 42.4792 86.8594 42.4375 87.0156 42.4062C87.1719 42.3646 87.3021 42.3333 87.4062 42.3125C87.4792 42.3021 87.5521 42.3073 87.625 42.3281C87.6979 42.349 87.776 42.3594 87.8594 42.3594C87.9948 42.3594 88.1302 42.3594 88.2656 42.3594C88.401 42.349 88.5312 42.349 88.6562 42.3594C88.7812 42.3698 88.8958 42.3906 89 42.4219C89.1146 42.4531 89.2135 42.5052 89.2969 42.5781C89.3281 42.599 89.3594 42.6042 89.3906 42.5938C89.4323 42.5833 89.4844 42.5885 89.5469 42.6094C89.651 42.651 89.724 42.7083 89.7656 42.7812C89.8073 42.8438 89.875 42.901 89.9688 42.9531C90.0312 42.9844 90.1198 43.0052 90.2344 43.0156C90.349 43.026 90.4635 43.0365 90.5781 43.0469C90.6927 43.0573 90.7917 43.0781 90.875 43.1094C90.9688 43.1406 91.0156 43.1927 91.0156 43.2656C91.0156 43.3385 90.9896 43.401 90.9375 43.4531C90.8958 43.4948 90.8385 43.5312 90.7656 43.5625C90.6927 43.5938 90.6146 43.625 90.5312 43.6562C90.4583 43.6771 90.401 43.7031 90.3594 43.7344C90.3073 43.7552 90.2656 43.7865 90.2344 43.8281C90.2135 43.8698 90.1771 43.9062 90.125 43.9375C90.0625 43.9792 89.9583 44.0312 89.8125 44.0938C89.6667 44.1562 89.5156 44.2135 89.3594 44.2656C89.2031 44.3177 89.0521 44.3594 88.9062 44.3906C88.7604 44.4219 88.651 44.4271 88.5781 44.4062C88.4635 44.375 88.3646 44.3229 88.2812 44.25C88.2083 44.1771 88.099 44.1406 87.9531 44.1406C87.8281 44.1406 87.7031 44.1719 87.5781 44.2344C87.4531 44.2865 87.3594 44.3646 87.2969 44.4688C87.2448 44.5521 87.1927 44.651 87.1406 44.7656C87.0885 44.8698 87.0677 44.9583 87.0781 45.0312C87.0781 45.0833 87.0938 45.1302 87.125 45.1719C87.1667 45.2135 87.2031 45.2708 87.2344 45.3438C87.2865 45.4583 87.3229 45.5677 87.3438 45.6719C87.375 45.7656 87.4583 45.8385 87.5938 45.8906C87.7708 45.8698 87.9271 45.8125 88.0625 45.7188C88.1979 45.6146 88.3177 45.5052 88.4219 45.3906C88.474 45.349 88.5104 45.3021 88.5312 45.25C88.5625 45.1979 88.599 45.151 88.6406 45.1094C88.7031 45.0573 88.7917 45.0052 88.9062 44.9531C89.0312 44.8906 89.1615 44.8333 89.2969 44.7812C89.4427 44.7188 89.5833 44.6615 89.7188 44.6094C89.8646 44.5469 89.9792 44.4844 90.0625 44.4219C90.3646 44.1823 90.6667 43.9531 90.9688 43.7344C91.2708 43.5052 91.5573 43.276 91.8281 43.0469C91.974 42.9531 92.1198 42.8854 92.2656 42.8438C92.4219 42.7917 92.5833 42.7396 92.75 42.6875C92.9583 42.625 93.151 42.5365 93.3281 42.4219C93.5156 42.3073 93.7031 42.2083 93.8906 42.125C94.099 42.0417 94.3333 41.9531 94.5938 41.8594C94.8542 41.7552 95.1042 41.6875 95.3438 41.6562C95.4271 41.6562 95.4688 41.6771 95.4688 41.7188C95.4792 41.75 95.4688 41.7917 95.4375 41.8438C95.4167 41.8958 95.3854 41.9479 95.3438 42C95.3021 42.0417 95.2812 42.0625 95.2812 42.0625C95.1979 42.1458 95.1354 42.2135 95.0938 42.2656C95.0625 42.3073 95.0208 42.3542 94.9688 42.4062C94.8229 42.5 94.6667 42.5833 94.5 42.6562C94.3333 42.7188 94.1719 42.7969 94.0156 42.8906C93.7448 43.0677 93.4688 43.2396 93.1875 43.4062C92.9167 43.5729 92.6458 43.7552 92.375 43.9531C92.1771 44.0781 91.9792 44.2292 91.7812 44.4062C91.5938 44.5833 91.4271 44.7604 91.2812 44.9375C91.1562 45.1042 91.0677 45.2448 91.0156 45.3594C90.9635 45.4635 90.875 45.5781 90.75 45.7031C90.5 45.9635 90.1979 46.2135 89.8438 46.4531C89.4896 46.6927 89.1667 46.9427 88.875 47.2031C88.8125 47.2552 88.724 47.3385 88.6094 47.4531C88.4948 47.5677 88.4375 47.6458 88.4375 47.6875C88.4271 47.7396 88.4375 47.7969 88.4688 47.8594C88.5104 47.9115 88.5573 47.9688 88.6094 48.0312C88.6615 48.0833 88.7083 48.1354 88.75 48.1875C88.8021 48.2396 88.8333 48.2812 88.8438 48.3125ZM86.1719 49.5312C86.099 49.6146 86.0365 49.7031 85.9844 49.7969C85.9427 49.8906 85.8906 49.9844 85.8281 50.0781C85.8073 50.1198 85.776 50.1562 85.7344 50.1875C85.7031 50.2188 85.6771 50.2604 85.6562 50.3125C85.6146 50.3958 85.5781 50.4896 85.5469 50.5938C85.5156 50.6875 85.474 50.7812 85.4219 50.875C85.3802 50.9792 85.3385 51.0781 85.2969 51.1719C85.2656 51.2552 85.2448 51.3281 85.2344 51.3906C85.2344 51.4427 85.2396 51.5 85.25 51.5625C85.2708 51.6146 85.2917 51.6823 85.3125 51.7656C85.3542 52.0052 85.4167 52.1719 85.5 52.2656C85.5938 52.349 85.7188 52.4479 85.875 52.5625C85.9583 52.6146 86.0365 52.6667 86.1094 52.7188C86.1823 52.7604 86.2448 52.7812 86.2969 52.7812C86.4427 52.8021 86.5938 52.7656 86.75 52.6719C86.9167 52.5677 87.0365 52.4479 87.1094 52.3125C87.1927 52.1562 87.2552 51.9531 87.2969 51.7031C87.3385 51.4427 87.3646 51.2031 87.375 50.9844C87.375 50.9115 87.375 50.8333 87.375 50.75C87.3854 50.6562 87.3802 50.5833 87.3594 50.5312C87.349 50.4792 87.3281 50.4219 87.2969 50.3594C87.2656 50.2865 87.2344 50.2135 87.2031 50.1406C87.1302 49.9635 87.0469 49.776 86.9531 49.5781C86.8594 49.3698 86.7552 49.1979 86.6406 49.0625C86.5469 49.1354 86.4635 49.2083 86.3906 49.2812C86.3177 49.3542 86.2448 49.4375 86.1719 49.5312Z" fill="url(#paint0_linear_132_74)"/>
<defs>
<linearGradient id="paint0_linear_132_74" x1="9" y1="61" x2="92" y2="61" gradientUnits="userSpaceOnUse">
<stop stop-color="#69E4FB"/>
<stop offset="1" stop-color="#E332EA"/>
</linearGradient>
</defs>
</svg>
